/* XPM */
static char * grass_xpm[] = {
"40 40 462 2",
"  	c #014601",
". 	c #014801",
"+ 	c #065906",
"@ 	c #116D11",
"# 	c #126E12",
"$ 	c #0E760E",
"% 	c #118511",
"& 	c #139013",
"* 	c #169216",
"= 	c #2E952E",
"- 	c #3C983C",
"; 	c #2D8D2D",
"> 	c #126712",
", 	c #024902",
"' 	c #014701",
") 	c #084A08",
"! 	c #024D02",
"~ 	c #024B02",
"{ 	c #0A5E0A",
"] 	c #3A8C3A",
"^ 	c #2A942A",
"/ 	c #199219",
"( 	c #1D931D",
"_ 	c #309630",
": 	c #3D983D",
"< 	c #139213",
"[ 	c #149214",
"} 	c #014901",
"| 	c #075F07",
"1 	c #0C680C",
"2 	c #0B660B",
"3 	c #0B680B",
"4 	c #0D720D",
"5 	c #118711",
"6 	c #149114",
"7 	c #108510",
"8 	c #045C04",
"9 	c #228D22",
"0 	c #149014",
"a 	c #139113",
"b 	c #014A01",
"c 	c #086108",
"d 	c #0B670B",
"e 	c #0C690C",
"f 	c #0E780E",
"g 	c #128B12",
"h 	c #0F840F",
"i 	c #065E06",
"j 	c #024802",
"k 	c #024C02",
"l 	c #1C781C",
"m 	c #117D11",
"n 	c #0E7E0E",
"o 	c #0F830F",
"p 	c #118911",
"q 	c #128F12",
"r 	c #014B01",
"s 	c #085F08",
"t 	c #0C670C",
"u 	c #0C6B0C",
"v 	c #0F7B0F",
"w 	c #118A11",
"x 	c #0C6F0C",
"y 	c #0A500A",
"z 	c #034803",
"A 	c #054905",
"B 	c #034A03",
"C 	c #024702",
"D 	c #064B06",
"E 	c #094D09",
"F 	c #0F510F",
"G 	c #135713",
"H 	c #085708",
"I 	c #045604",
"J 	c #055B05",
"K 	c #076707",
"L 	c #0C780C",
"M 	c #108710",
"N 	c #129012",
"O 	c #065C06",
"P 	c #0A630A",
"Q 	c #0B650B",
"R 	c #0C6A0C",
"S 	c #0E750E",
"T 	c #108410",
"U 	c #128D12",
"V 	c #188518",
"W 	c #0E6A0E",
"X 	c #035003",
"Y 	c #024A02",
"Z 	c #045504",
"` 	c #096D09",
" .	c #128E12",
"..	c #159115",
"+.	c #034903",
"@.	c #045304",
"#.	c #085E08",
"$.	c #0D730D",
"%.	c #138713",
"&.	c #138E13",
"*.	c #045704",
"=.	c #034D03",
"-.	c #086908",
";.	c #0D7B0D",
">.	c #118611",
",.	c #045204",
"'.	c #096009",
").	c #117F11",
"!.	c #118811",
"~.	c #0E7C0E",
"{.	c #096E09",
"].	c #085108",
"^.	c #074E07",
"/.	c #035103",
"(.	c #076007",
"_.	c #075B07",
":.	c #055405",
"<.	c #024F02",
"[.	c #045804",
"}.	c #076507",
"|.	c #044F04",
"1.	c #034E03",
"2.	c #075E07",
"3.	c #0F7D0F",
"4.	c #138F13",
"5.	c #128C12",
"6.	c #107D10",
"7.	c #0F7A0F",
"8.	c #0D700D",
"9.	c #0D6E0D",
"0.	c #086408",
"a.	c #045104",
"b.	c #065706",
"c.	c #158315",
"d.	c #1D841D",
"e.	c #117111",
"f.	c #066106",
"g.	c #045A04",
"h.	c #035603",
"i.	c #035403",
"j.	c #055005",
"k.	c #024E02",
"l.	c #0E6F0E",
"m.	c #0D590D",
"n.	c #014C01",
"o.	c #065B06",
"p.	c #0A670A",
"q.	c #108010",
"r.	c #0D6A0D",
"s.	c #0E690E",
"t.	c #0E6C0E",
"u.	c #107510",
"v.	c #107E10",
"w.	c #0E7B0E",
"x.	c #0D770D",
"y.	c #0D7C0D",
"z.	c #108610",
"A.	c #198819",
"B.	c #247D24",
"C.	c #096609",
"D.	c #076407",
"E.	c #076207",
"F.	c #0A5F0A",
"G.	c #0B5B0B",
"H.	c #035303",
"I.	c #137113",
"J.	c #096409",
"K.	c #0B6B0B",
"L.	c #0E720E",
"M.	c #0F810F",
"N.	c #0C6D0C",
"O.	c #0F6A0F",
"P.	c #127A12",
"Q.	c #0F7E0F",
"R.	c #0E730E",
"S.	c #126B12",
"T.	c #0D680D",
"U.	c #0A660A",
"V.	c #086508",
"W.	c #0E650E",
"X.	c #196F19",
"Y.	c #0C730C",
"Z.	c #055905",
"`.	c #065D06",
" +	c #0A6E0A",
".+	c #0E7A0E",
"++	c #0E740E",
"@+	c #0F700F",
"#+	c #1E811E",
"$+	c #118111",
"%+	c #086808",
"&+	c #0A650A",
"*+	c #127412",
"=+	c #086608",
"-+	c #1A6A1A",
";+	c #2B7B2B",
">+	c #034B03",
",+	c #0E620E",
"'+	c #137F13",
")+	c #107F10",
"!+	c #0D6F0D",
"~+	c #188118",
"{+	c #268C26",
"]+	c #168816",
"^+	c #0B730B",
"/+	c #0D670D",
"(+	c #197619",
"_+	c #128912",
":+	c #146914",
"<+	c #257E25",
"[+	c #148D14",
"}+	c #128A12",
"|+	c #0B710B",
"1+	c #054A05",
"2+	c #176217",
"3+	c #1E831E",
"4+	c #1C8B1C",
"5+	c #178517",
"6+	c #137C13",
"7+	c #0F740F",
"8+	c #096809",
"9+	c #0E7D0E",
"0+	c #138D13",
"a+	c #0C770C",
"b+	c #096909",
"c+	c #0C660C",
"d+	c #166E16",
"e+	c #238323",
"f+	c #108310",
"g+	c #0C6C0C",
"h+	c #0A640A",
"i+	c #076607",
"j+	c #198F19",
"k+	c #0B520B",
"l+	c #044B04",
"m+	c #055C05",
"n+	c #0D740D",
"o+	c #148F14",
"p+	c #076307",
"q+	c #158A15",
"r+	c #146814",
"s+	c #0A680A",
"t+	c #167616",
"u+	c #248D24",
"v+	c #055705",
"w+	c #065F06",
"x+	c #188E18",
"y+	c #118211",
"z+	c #0B5F0B",
"A+	c #066706",
"B+	c #0D750D",
"C+	c #0E7F0E",
"D+	c #0C760C",
"E+	c #0D7A0D",
"F+	c #0E800E",
"G+	c #096C09",
"H+	c #136713",
"I+	c #0E790E",
"J+	c #1B8F1B",
"K+	c #034F03",
"L+	c #0B690B",
"M+	c #178D17",
"N+	c #065A06",
"O+	c #0D7D0D",
"P+	c #0B760B",
"Q+	c #186818",
"R+	c #196A19",
"S+	c #107B10",
"T+	c #168C16",
"U+	c #0B630B",
"V+	c #1D691D",
"W+	c #1D6B1D",
"X+	c #168E16",
"Y+	c #197819",
"Z+	c #0C740C",
"`+	c #118411",
" @	c #116F11",
".@	c #146714",
"+@	c #106910",
"@@	c #138413",
"#@	c #096209",
"$@	c #176817",
"%@	c #0D690D",
"&@	c #0C720C",
"*@	c #108210",
"=@	c #108110",
"-@	c #147C14",
";@	c #177917",
">@	c #117611",
",@	c #0F790F",
"'@	c #158D15",
")@	c #117A11",
"!@	c #066406",
"~@	c #148E14",
"{@	c #076107",
"]@	c #106810",
"^@	c #0A690A",
"/@	c #0F7F0F",
"(@	c #086A08",
"_@	c #147F14",
":@	c #0F730F",
"<@	c #0A710A",
"[@	c #179217",
"}@	c #055605",
"|@	c #0A620A",
"1@	c #0E660E",
"2@	c #0B6D0B",
"3@	c #0D790D",
"4@	c #148914",
"5@	c #1B911B",
"6@	c #096F09",
"7@	c #148714",
"8@	c #199019",
"9@	c #1A921A",
"0@	c #055105",
"a@	c #085B08",
"b@	c #136613",
"c@	c #0E6E0E",
"d@	c #219221",
"e@	c #269426",
"f@	c #0C790C",
"g@	c #187D18",
"h@	c #298C29",
"i@	c #0F760F",
"j@	c #075907",
"k@	c #045404",
"l@	c #066006",
"m@	c #055505",
"n@	c #0D710D",
"o@	c #1B871B",
"p@	c #075D07",
"q@	c #136513",
"r@	c #157B15",
"s@	c #178E17",
"t@	c #229122",
"u@	c #128712",
"v@	c #0A6F0A",
"w@	c #208420",
"x@	c #168A16",
"y@	c #0E640E",
"z@	c #065006",
"A@	c #064C06",
"B@	c #0C600C",
"C@	c #156F15",
"D@	c #138913",
"E@	c #158715",
"F@	c #096709",
"G@	c #034703",
"H@	c #066206",
"I@	c #086708",
"J@	c #197B19",
"K@	c #128812",
"L@	c #035203",
"M@	c #107910",
"N@	c #126412",
"O@	c #0F4D0F",
"P@	c #0A6B0A",
"Q@	c #157715",
"R@	c #1B831B",
"S@	c #158C15",
"T@	c #1C811C",
"U@	c #226522",
"V@	c #0D4D0D",
"W@	c #106710",
"X@	c #169116",
"Y@	c #0E770E",
"Z@	c #0F7C0F",
"`@	c #118D11",
" #	c #055F05",
".#	c #096509",
"+#	c #1A8C1A",
"@#	c #1A7A1A",
"##	c #187018",
"$#	c #118C11",
"%#	c #127812",
"&#	c #128412",
"*#	c #0D780D",
"=#	c #0F6C0F",
"-#	c #165716",
";#	c #128012",
">#	c #146514",
",#	c #0E4F0E",
"'#	c #0D4E0D",
")#	c #106A10",
"!#	c #0C500C",
"~#	c #125712",
"{#	c #167A16",
"]#	c #177817",
"^#	c #187118",
"/#	c #116A11",
"(#	c #1D5C1D",
"_#	c #086008",
":#	c #044904",
"<#	c #117011",
"[#	c #145514",
"}#	c #0F800F",
"|#	c #096109",
"1#	c #0A5A0A",
"2#	c #0C6E0C",
"3#	c #084E08",
"4#	c #0B6E0B",
"5#	c #085A08",
"6#	c #095D09",
"7#	c #035503",
"8#	c #095609",
"9#	c #096A09",
"0#	c #115311",
"a#	c #044E04",
"b#	c #157915",
"c#	c #0F5E0F",
"d#	c #065206",
"e#	c #055305",
"f#	c #128312",
"g#	c #1D711D",
"h#	c #306330",
"i#	c #116811",
"j#	c #0F5C0F",
"k#	c #0B700B",
"l#	c #0E810E",
"m#	c #138B13",
"n#	c #175717",
"o#	c #1B781B",
"p#	c #138813",
"q#	c #138A13",
"r#	c #128612",
"s#	c #205B20",
"t#	c #065806",
"u#	c #065406",
"v#	c #075807",
"w#	c #0B6F0B",
"x#	c #0D760D",
"y#	c #117E11",
"z#	c #168716",
"A#	c #095509",
"B#	c #1B6C1B",
"C#	c #188618",
"D#	c #0C700C",
"E#	c #138613",
"F#	c #0D570D",
"G#	c #286E28",
"H#	c #198519",
"I#	c #0B720B",
"J#	c #118B11",
"K#	c #268B26",
"L#	c #268026",
"M#	c #0C560C",
"N#	c #094E09",
"O#	c #186F18",
"P#	c #137913",
"Q#	c #127E12",
"R#	c #025002",
"S#	c #0B750B",
"T#	c #0A600A",
"U#	c #126D12",
"V#	c #107610",
"W#	c #076807",
"X#	c #177717",
"Y#	c #0C5E0C",
"Z#	c #066306",
"`#	c #0D650D",
" $	c #0A610A",
".$	c #0B480B",
"      . + @ # $ % & * = - ; > , ' ' ' ' ' ' ' ) ! ~     . { ] ^ / / ( _ : / < [ ",
"      } | 1 2 3 4 5 & [ 6 7 8 . ' ' ' . . ' ' ' } ~ '   ~ 3 9 0 a a < < * [ < < ",
"      b c d 2 2 e f g a a h i j ' ' . ~ k } ' ' . } . ' ! | l m n o p q a < < < ",
"' ' ' r s t 2 2 2 u v p & w x y z ' j A B , . ' ' C j D E F G H I J K L M N < [ ",
"' ' ' ~ O P Q 2 2 d R S T U V W X . ' ' C ' ' ' ' ' C ) z z z j . . Y Z ` %  ...",
"' ' C +.! @.#.Q 2 2 2 d $.%.&.h ` *.! , ' ' ' ' ' ' , =.Y , j ' ' ' ' . X -.;.>.",
"k ' ' ' . } ,.'.2 2 2 2 R ).& N !.~.{.i ].^.~ . ' . /.(._.:.<.k } } . . } /.[.-.",
"}.|.j ' ' ' 1.2.2 2 2 2 e 3.4.5.% 6.7.S 8.9.0.Z a.b.8.c.d.e.f.g.h.i.j.Y . Y . k.",
"T l.m.~ } n.o.p.2 2 2 2 R q.U q.8.r.s.e t.u.v.w.x.y.z.5.A.B.t.C.D.E.F.G.H.H.Y . ",
"T 7.I.J.i E.K.3 2 2 2 d L.>.M.N.2 2 2 2 2 O.P.g q g >.Q.R.S.T.U.C.V.W.X.Y.-.X ' ",
"f.Z.Z.`. +.+++d 2 d e @+#+$+%+2.&+2 2 2 2 t *+p 5.q.8.R t 2 2 2 U.=+-+;+!.M.E.~ ",
"Y j , >+,+'+)+!+R !+$ ~+{+]+^+| J.U.U.2 2 /+(+_+5 4 d 2 2 2 2 2 U.=+:+<+[+}+|+X ",
"j . j 1+2+3+4+5+6+7+8+u 9+0+5.a+b+C.U.c+2 d+e+0+f+g+2 2 2 h+P J.V.i+%+m j+_+N.k+",
"l+! /.m+n+}+[ o+3.O Y k p+h ..q+Y.K c+r+s+t+u+&.3.R 2 2 h+_.v+w+}.i+-.n x+y+z++.",
",.A+B+C+p & < q D+k.' ' i.E+& 0 F+G+=+H+1 I+J+_+++d 2 2 #.K+! g.D.=+L+Q.M+q.N+} ",
"(.C+4.& < < a & O+*.. . X P+q < g D+%+Q+R+S+T+3.u 2 2 2 _., Y I U+V+W+v.X+>.K.Z ",
"Y+g < a 0 [+}+}+T -.! . X Z+ .< a `+ @.@+@6.@@8.d 2 2 L+2.~ Y i.#@$@%@n o+0+f+E+",
"&@*@p >.=@-@;@>@,@Z+i ! [.L  .< [ '@a+K -.v.)@e 2 2 3 K.O K+X g.!@i+%+E+ .6 & ~@",
"~ /.Z v+{@d ]@/+1 g+^@O }./@q < < & C+(@(@_@:@d 2 3 N.(.k . ! g.D.i+K <@7 0 [@[@",
"'     ~ }@|@1@2 2 d L+2@3@4@5@/ [ & 7 6@` 3+L.d 2 R 2@H.' ' b [.}.i+i+%+D+7@8@9@",
"'   ' Y 0@a@b@2 2 2 2 c@)+5.d@e@..4.p f@g@h@i@3 2 d R j@Y ' . k@l@l@m+m@Z `.n@o@",
"' b :.a@p@2.q@U.U.d L+:@r@>.s@t@u@f@v@L.w@x@3.R 2 2 t y@}@k } 1.H.z@A@. ' ' Y B@",
"C 1.l@}.i+V.1@=+=+C.b+9.C@P.D@E@K./.Y 1.F@7 % n@d 2 2 t h++ ,.k , z ' ' ' ' ' , ",
"G@B I H@i+i+=+i+i+i+I@K.d+J@K@y.i.' ' ' L@y.5.)+N.d 2 2 3 L.M@N@O@C ' ' ' ' ' ' ",
"' ' b [.D.i+C.2 i+i+i+P@Q@R@}+a+k.' ' ' H.~.o+5./@!+3 d N.)+S@T@U@V@' ' ' ' ' ' ",
"' ' ' k m+D.C.W@=+i+I@2@++)+}+F+m+b } Y s R@X@a 5.$+Y@B+Z@p 4.`@).s.K+' ' ' ' ' ",
"' ' ' ' k *. #p+.#i+I@L+3 !+f+p ;.%+D.%+S++#[ N 5 @###8.,@M.z.$#4.z.b+~ ' ' ' ' ",
". ' ' ' ' . ! m@`.H@.#d 2 1 %#&#C+*#C+z.U & q T =#-#>+k H.m+c n+5 N ;#>#,#B Y '#",
"i.. ' ' ' ' ' . k H.| &+2 2 )#e o.+ 2@T a < w v@!#j ' ' ' . . ~#{#K@;#]#^#/##@(#",
"x.Z., ' ' ' ' ' ' } k@#@2 2 h+b.r . *.;.N a o _#:#' ' ' ' ' ' A@<#,@N.u 4 ,@N.[#",
"K@}#V.=.. ' ' ' ' ' =._.h+Q |#@.} . I ;.N a C+1#z ' ' ' ' ' . @.Z+8.2 2 d 2#^@3#",
"4#q.v.p+! } . ' ' ' , a.5#6#v+1.! 7#G+7 a & ;.8#j . . Y k ~ L@9#)+L.d 2 2 3 u 0#",
"a#I@b#c#, ' . . . ' ' } =.d#a#,.D.a+z.q < N E+e#j j k `.P@ +*#f#v.!+t 2 2 t g#h#",
"' /.i#j#B j j ~ i./.} . X l@=+k#l#m#4.& 6 a C+J , :#n#o#p#q#S@r#++1 2 2 2 2 W@s#",
"' } @.| t#u#v#P n+^+D.l@` D+|+w#x#w.~.y#z#4.p ^+J A#B#C#o+}+y+Z@8.d 2 2 2 h+v+, ",
"' ' . [.D#,@6.f#_+}+E#c.;#9#,.! /.I }@F#G#H# .% w.x.Q.K@5.*@S n@!+t 2 2 2 s K+  ",
". ' ' X I#5 }+}+g J#4@K#L#M#' ' ' . ' ' N#O#Q.w.Y@++P#Q#>./@4 N.u d 2 2 Q j@Y   ",
"R#. ' ! p+S#a+a+a+S#^+++c@d#C ' ' ' ' ' k T#u 1 d 3 s.U#V#$ 2#1 d 2 2 2 |#@.'   ",
"l@~ } X L@H@W#W#W#K K K H@X ' ' ' ' ' . =.s d 2 2 2 2 1 r.R d 2 2 2 2 |@b.~     ",
"X#Y#k@! ~ w+i+i+i+i+i+i+Z#m@+.' ' ' ' ' ~ { L+2 2 2 2 d d 2 2 2 2 `# $b.k '   .$"};
