/* XPM */
static char * player_xpm[] = {
"40 40 968 2",
"  	c #0F980F",
". 	c #0E970E",
"+ 	c #1C8A1C",
"@ 	c #1F711F",
"# 	c #1E5B1E",
"$ 	c #1D601D",
"% 	c #287C28",
"& 	c #559950",
"* 	c #669758",
"= 	c #667847",
"- 	c #67613E",
"; 	c #665539",
"> 	c #655338",
", 	c #645338",
"' 	c #68583D",
") 	c #727958",
"! 	c #6A9F64",
"~ 	c #219021",
"{ 	c #138713",
"] 	c #128A12",
"^ 	c #0F920F",
"/ 	c #0D960D",
"( 	c #0D970D",
"_ 	c #0F930F",
": 	c #109010",
"< 	c #118F11",
"[ 	c #209520",
"} 	c #0E940E",
"| 	c #167F16",
"1 	c #1C591C",
"2 	c #1E4B1E",
"3 	c #1E4D1E",
"4 	c #1F661F",
"5 	c #4B853B",
"6 	c #597033",
"7 	c #5F5E35",
"8 	c #635637",
"9 	c #615C37",
"0 	c #538043",
"a 	c #267725",
"b 	c #1B601B",
"c 	c #1A671A",
"d 	c #157E15",
"e 	c #109110",
"f 	c #138813",
"g 	c #177917",
"h 	c #187518",
"i 	c #1A821A",
"j 	c #128B12",
"k 	c #187618",
"l 	c #1C581C",
"m 	c #1E4C1E",
"n 	c #1E4E1E",
"o 	c #276825",
"p 	c #4B712D",
"q 	c #5F5A36",
"r 	c #645438",
"s 	c #665438",
"t 	c #685539",
"u 	c #6A563A",
"v 	c #69563A",
"w 	c #685639",
"x 	c #6A573A",
"y 	c #615836",
"z 	c #43732F",
"A 	c #205C1F",
"B 	c #1B621B",
"C 	c #148414",
"D 	c #0D940D",
"E 	c #1C5C1C",
"F 	c #1D551D",
"G 	c #206920",
"H 	c #196E19",
"I 	c #1C5D1C",
"J 	c #1C5A1C",
"K 	c #1E641E",
"L 	c #37792C",
"M 	c #526B2D",
"N 	c #635438",
"O 	c #675539",
"P 	c #715B3D",
"Q 	c #8B6B49",
"R 	c #A17953",
"S 	c #A97E57",
"T 	c #A87D56",
"U 	c #A67C55",
"V 	c #A67C56",
"W 	c #A87E58",
"X 	c #AB815B",
"Y 	c #AE835C",
"Z 	c #8C6C4A",
"` 	c #6F593C",
" .	c #655438",
"..	c #5B6034",
"+.	c #377727",
"@.	c #1D581D",
"#.	c #1E4A1E",
"$.	c #1D511D",
"%.	c #197119",
"&.	c #1D561D",
"*.	c #1D531D",
"=.	c #196D19",
"-.	c #168516",
";.	c #3F8F30",
">.	c #5C7233",
",.	c #665739",
"'.	c #785F41",
").	c #967250",
"!.	c #B88A61",
"~.	c #D69F72",
"{.	c #E3A878",
"].	c #E8AA7A",
"^.	c #E8A976",
"/.	c #E6A876",
"(.	c #E7A876",
"_.	c #E8AC7D",
":.	c #EAB792",
"<.	c #EABA97",
"[.	c #E5AE87",
"}.	c #D7A27A",
"|.	c #B48762",
"1.	c #886949",
"2.	c #715C3E",
"3.	c #667038",
"4.	c #42862C",
"5.	c #1C641C",
"6.	c #196A19",
"7.	c #187218",
"8.	c #1A681A",
"9.	c #1B5F1B",
"0.	c #196F19",
"a.	c #177517",
"b.	c #109310",
"c.	c #499A37",
"d.	c #888A4A",
"e.	c #9C7A50",
"f.	c #B0855E",
"g.	c #C39A7B",
"h.	c #DAAD8E",
"i.	c #E7B99C",
"j.	c #ECC0A7",
"k.	c #E9B79A",
"l.	c #EAB088",
"m.	c #ECAC7A",
"n.	c #EDAD79",
"o.	c #EBB28A",
"p.	c #E8BBA4",
"q.	c #E5C0B2",
"r.	c #EACDC2",
"s.	c #E7C8B6",
"t.	c #D5AC90",
"u.	c #C0936B",
"v.	c #A99258",
"w.	c #609537",
"x.	c #1B7B1A",
"y.	c #1C5B1C",
"z.	c #1E501E",
"A.	c #1D4F1D",
"B.	c #1B5D1B",
"C.	c #187118",
"D.	c #167E16",
"E.	c #128912",
"F.	c #177D18",
"G.	c #2E9832",
"H.	c #7EA46B",
"I.	c #C4A26D",
"J.	c #DCA271",
"K.	c #E4A777",
"L.	c #E4B293",
"M.	c #E9CABC",
"N.	c #EBD8D2",
"O.	c #DCCED4",
"P.	c #CFB6BE",
"Q.	c #D9AC9F",
"R.	c #E5A87F",
"S.	c #ECAD79",
"T.	c #E4AA8A",
"U.	c #D2B2B3",
"V.	c #BFB6CC",
"W.	c #D0CDDE",
"X.	c #EAE4E8",
"Y.	c #F3DCD1",
"Z.	c #EBBB97",
"`.	c #D8A870",
" +	c #A8A358",
".+	c #5A974E",
"++	c #328136",
"@+	c #1F6920",
"#+	c #1D5C1D",
"$+	c #1F721F",
"%+	c #3C914D",
"&+	c #58A490",
"*+	c #99A6A4",
"=+	c #DCA982",
"-+	c #ECAC79",
";+	c #EDAE7B",
">+	c #EFBB97",
",+	c #EED8D1",
"'+	c #DED9E4",
")+	c #AFAED1",
"!+	c #8F89BD",
"~+	c #B99BAD",
"{+	c #DDA387",
"]+	c #EBAD7B",
"^+	c #DBA893",
"/+	c #B29EBA",
"(+	c #7E7DBD",
"_+	c #A2A2CD",
":+	c #DBDBE9",
"<+	c #F4EBE9",
"[+	c #F2C8AD",
"}+	c #E8AF7C",
"|+	c #D8A974",
"1+	c #9EA798",
"2+	c #5EA1A0",
"3+	c #3E8F73",
"4+	c #277B3B",
"5+	c #1E6320",
"6+	c #1E551E",
"7+	c #158115",
"8+	c #118D11",
"9+	c #138513",
"0+	c #168216",
"a+	c #308732",
"b+	c #649D7A",
"c+	c #64A4AF",
"d+	c #57A2D1",
"e+	c #8BA4CA",
"f+	c #D1AA9D",
"g+	c #EBAD7C",
"h+	c #EFBB95",
"i+	c #EED6CE",
"j+	c #D4D0E0",
"k+	c #9191C5",
"l+	c #6561B2",
"m+	c #A58AAC",
"n+	c #D89F89",
"o+	c #EBAB7A",
"p+	c #EBAC7B",
"q+	c #DAA58E",
"r+	c #B198B4",
"s+	c #7D7ABA",
"t+	c #A1A1CB",
"u+	c #DAD8E5",
"v+	c #F2E2DC",
"w+	c #F1C2A3",
"x+	c #EDAF7D",
"y+	c #E6AC82",
"z+	c #A8A6BB",
"A+	c #55A2D9",
"B+	c #449EC7",
"C+	c #3B969B",
"D+	c #3D8B61",
"E+	c #2A7B2F",
"F+	c #1A711A",
"G+	c #1A6E1A",
"H+	c #1D6B1D",
"I+	c #1A661A",
"J+	c #177A17",
"K+	c #0E960E",
"L+	c #109710",
"M+	c #52A052",
"N+	c #9AB1AA",
"O+	c #96A7C5",
"P+	c #7AA3D3",
"Q+	c #6DA3D7",
"R+	c #A9A6BD",
"S+	c #DDAB8F",
"T+	c #ECAD7C",
"U+	c #EEB488",
"V+	c #EFC8B2",
"W+	c #DFCDCE",
"X+	c #BEB2C9",
"Y+	c #A794B6",
"Z+	c #C59CA0",
"`+	c #DFA382",
" @	c #E9AA78",
".@	c #EAAB78",
"+@	c #EBAC79",
"@@	c #E3A783",
"#@	c #D0A5A2",
"$@	c #BCA6BA",
"%@	c #CDBFCD",
"&@	c #E6D2D0",
"*@	c #F0CBB7",
"=@	c #EFB78D",
"-@	c #EDAD7B",
";@	c #E0AB8D",
">@	c #A1A6C2",
",@	c #51A1DD",
"'@	c #5CA2D9",
")@	c #77A3C9",
"!@	c #7FA3A3",
"~@	c #6CA272",
"{@	c #3D923D",
"]@	c #287D28",
"^@	c #205D20",
"/@	c #1B641B",
"(@	c #0E980E",
"_@	c #239922",
":@	c #7AA96B",
"<@	c #C5AD90",
"[@	c #CFAA9E",
"}@	c #A8A6BD",
"|@	c #70A2D6",
"1@	c #82A3CF",
"2@	c #C6A9A8",
"3@	c #E7AC83",
"4@	c #EDAF7E",
"5@	c #EEB68D",
"6@	c #E9BBA1",
"7@	c #DEB6A7",
"8@	c #D7A99B",
"9@	c #DBA387",
"0@	c #D69D73",
"a@	c #CA9568",
"b@	c #C89467",
"c@	c #D99E6F",
"d@	c #E3A678",
"e@	c #E4AA85",
"f@	c #E0AD93",
"g@	c #E5B69D",
"h@	c #EBB899",
"i@	c #EDB388",
"j@	c #E4AC87",
"k@	c #AEAABF",
"l@	c #69A7DD",
"m@	c #89A5CE",
"n@	c #C2A8AB",
"o@	c #D6AA89",
"p@	c #BEAB80",
"q@	c #95AB7A",
"r@	c #5B8F56",
"s@	c #276527",
"t@	c #1E531E",
"u@	c #1D611D",
"v@	c #159815",
"w@	c #4A9F44",
"x@	c #A8AD76",
"y@	c #E1AC7C",
"z@	c #E6AC85",
"A@	c #C4A8A9",
"B@	c #81A3D0",
"C@	c #84A3CF",
"D@	c #CAA9A5",
"E@	c #EAAC7F",
"F@	c #EBAD79",
"G@	c #E7AB7A",
"H@	c #DEA579",
"I@	c #D49D73",
"J@	c #C18F66",
"K@	c #9C7651",
"L@	c #7C6142",
"M@	c #785F40",
"N@	c #95714E",
"O@	c #C18F63",
"P@	c #E0A472",
"Q@	c #E9AB79",
"R@	c #EDAD7A",
"S@	c #E3AC88",
"T@	c #AAA8BF",
"U@	c #75A9DB",
"V@	c #B0A9BB",
"W@	c #E5AC86",
"X@	c #E8AD77",
"Y@	c #CFAB75",
"Z@	c #8C9E6C",
"`@	c #30752D",
" #	c #1A6A1A",
".#	c #179816",
"+#	c #58A14B",
"@#	c #B9AB72",
"##	c #E9AC79",
"$#	c #EBAE7F",
"%#	c #D0ABA0",
"&#	c #8BA4CC",
"*#	c #C7A9A8",
"=#	c #E9AC80",
"-#	c #E7A976",
";#	c #D89E6E",
">#	c #BC8B61",
",#	c #A47B55",
"'#	c #866847",
")#	c #6B573B",
"!#	c #68553A",
"~#	c #856747",
"{#	c #BE8D62",
"]#	c #E2A573",
"^#	c #EBAC7D",
"/#	c #D0AA9E",
"(#	c #8CA4CB",
"_#	c #63A2DA",
":#	c #BEA8AF",
"<#	c #E5AC75",
"[#	c #B3A56D",
"}#	c #4C8E42",
"|#	c #197B19",
"1#	c #158215",
"2#	c #139813",
"3#	c #519F43",
"4#	c #B7A96A",
"5#	c #EAAC78",
"6#	c #EDAE7C",
"7#	c #E1AF91",
"8#	c #ACA7BD",
"9#	c #A4A6C0",
"0#	c #E4AB85",
"a#	c #E2A574",
"b#	c #C39064",
"c#	c #916F4C",
"d#	c #786041",
"e#	c #69553A",
"f#	c #997450",
"g#	c #D69E6E",
"h#	c #EBAC78",
"i#	c #D9AA95",
"j#	c #64A2D9",
"k#	c #61A2DA",
"l#	c #BCA8B0",
"m#	c #EAAD78",
"n#	c #D0A970",
"o#	c #74A15A",
"p#	c #1C911B",
"q#	c #509F41",
"r#	c #B4A765",
"s#	c #E8AC76",
"t#	c #EDAE7E",
"u#	c #D9AE9A",
"v#	c #9DA6C4",
"w#	c #92A4C9",
"x#	c #BAA7AF",
"y#	c #DCA57F",
"z#	c #796041",
"A#	c #665439",
"B#	c #D69D6D",
"C#	c #E8AC81",
"D#	c #D2AA9C",
"E#	c #A3A6C0",
"F#	c #6AA2D7",
"G#	c #52A1DD",
"H#	c #79A3D3",
"I#	c #C1A8AB",
"J#	c #E9AD82",
"K#	c #DCAB72",
"L#	c #8BA761",
"M#	c #2D9A2A",
"N#	c #119811",
"O#	c #4E9E3F",
"P#	c #AFA561",
"Q#	c #EBAF81",
"R#	c #C1ABB0",
"S#	c #72A3D5",
"T#	c #54A1DC",
"U#	c #75A3D4",
"V#	c #C9A69D",
"W#	c #D79E70",
"X#	c #916F4D",
"Y#	c #826545",
"Z#	c #755D3F",
"`#	c #6F5A3D",
" $	c #8E6D4B",
".$	c #C6A8A8",
"+$	c #91A4C9",
"@$	c #4EA1DE",
"#$	c #5FA2DA",
"$$	c #A1A6C1",
"%$	c #DCAC95",
"&$	c #ECAD7E",
"*$	c #ECAD78",
"=$	c #DCAA70",
"-$	c #8FA356",
";$	c #319B2B",
">$	c #149814",
",$	c #139812",
"'$	c #479D39",
")$	c #ABA55D",
"!$	c #D7B3A7",
"~$	c #7FA6D3",
"{$	c #4DA1DE",
"]$	c #51A1DF",
"^$	c #9BA5C4",
"/$	c #D5A790",
"($	c #DEA375",
"_$	c #D79E6E",
":$	c #D0996B",
"<$	c #BB8A60",
"[$	c #BF8E63",
"}$	c #CD9869",
"|$	c #E0A372",
"1$	c #E9AB7A",
"2$	c #E3AC89",
"3$	c #BFA8AD",
"4$	c #84A4CE",
"5$	c #55A1DC",
"6$	c #49A1DF",
"7$	c #4BA1DE",
"8$	c #C3A9AB",
"9$	c #EAAD80",
"0$	c #DDAA71",
"a$	c #94A150",
"b$	c #369B2C",
"c$	c #109510",
"d$	c #3F9A34",
"e$	c #A9A55D",
"f$	c #E7AC76",
"g$	c #EEAE7B",
"h$	c #E2B9A4",
"i$	c #8DABD4",
"j$	c #4EA2DF",
"k$	c #49A1E0",
"l$	c #9BA5C5",
"m$	c #C9A8A4",
"n$	c #DBAA90",
"o$	c #DFA98A",
"p$	c #E4AA84",
"q$	c #E5AA80",
"r$	c #DEA887",
"s$	c #D4A795",
"t$	c #D5A996",
"u$	c #D3AA9A",
"v$	c #77A2D3",
"w$	c #56A1DC",
"x$	c #48A1DF",
"y$	c #47A1DF",
"z$	c #4CA1DE",
"A$	c #7CA3D2",
"B$	c #D0AA9F",
"C$	c #ECAD7B",
"D$	c #E2AB73",
"E$	c #9EA151",
"F$	c #3D9B2E",
"G$	c #188718",
"H$	c #4C953F",
"I$	c #B2A462",
"J$	c #E9AC77",
"K$	c #E4B9A1",
"L$	c #8FABD3",
"M$	c #59A2DC",
"N$	c #89A4CD",
"O$	c #95A5C7",
"P$	c #A1A5C1",
"Q$	c #99A5C6",
"R$	c #77A3D3",
"S$	c #71A2D5",
"T$	c #53A1DD",
"U$	c #4BA1DF",
"V$	c #88A4CD",
"W$	c #D6AB98",
"X$	c #E6AC75",
"Y$	c #AAA359",
"Z$	c #469C37",
"`$	c #129811",
" %	c #1C6E1C",
".%	c #4F8B41",
"+%	c #B7A266",
"@%	c #E5B9A1",
"#%	c #91ACD3",
"$%	c #4AA1DF",
"%%	c #58A2DC",
"&%	c #50A1DD",
"*%	c #9AA5C5",
"=%	c #DEAB90",
"-%	c #E4AB74",
";%	c #ADA967",
">%	c #509E46",
",%	c #179717",
"'%	c #1C611C",
")%	c #3D8134",
"!%	c #B0A064",
"~%	c #EEAE7C",
"{%	c #E5BCA7",
"]%	c #96AFD5",
"^%	c #4FA2DF",
"/%	c #4AA1E0",
"(%	c #4BA2E0",
"_%	c #ADA6BA",
":%	c #D5AB72",
"<%	c #8CA86D",
"[%	c #359532",
"}%	c #159115",
"|%	c #177817",
"1%	c #358A2D",
"2%	c #AFA365",
"3%	c #E9AD76",
"4%	c #EEAF7D",
"5%	c #E4BCA8",
"6%	c #91ABD3",
"7%	c #4BA0DE",
"8%	c #47A0DE",
"9%	c #469CDC",
"0%	c #469FDE",
"a%	c #59A2DB",
"b%	c #B1A7B7",
"c%	c #E8AB76",
"d%	c #B7A66C",
"e%	c #488F40",
"f%	c #177E16",
"g%	c #128E11",
"h%	c #43983C",
"i%	c #BEAD74",
"j%	c #E2B9A6",
"k%	c #86A2CF",
"l%	c #4CA0DE",
"m%	c #47A0DF",
"n%	c #449BDB",
"o%	c #459CDC",
"p%	c #449BDC",
"q%	c #459DDD",
"r%	c #469EDE",
"s%	c #46A0DE",
"t%	c #459EDD",
"u%	c #469EDD",
"v%	c #A2A6C1",
"w%	c #E2AC89",
"x%	c #DFA671",
"y%	c #8F9459",
"z%	c #267224",
"A%	c #1A641A",
"B%	c #0F970F",
"C%	c #53A14D",
"D%	c #CDB78A",
"E%	c #E2B29A",
"F%	c #8896C2",
"G%	c #4A9ADA",
"H%	c #449ADB",
"I%	c #3C8BD2",
"J%	c #3A87CF",
"K%	c #4297D9",
"L%	c #449CDC",
"M%	c #4194D7",
"N%	c #357CCA",
"O%	c #2E6CC1",
"P%	c #2F6EC2",
"Q%	c #3072C4",
"R%	c #377FCB",
"S%	c #3D8DD3",
"T%	c #4AA1DE",
"U%	c #CFA9A0",
"V%	c #CA9C67",
"W%	c #5F7941",
"X%	c #1E591E",
"Y%	c #4EA14A",
"Z%	c #C9BD94",
"`%	c #EBAF7C",
" &	c #E5AE8C",
".&	c #9484AE",
"+&	c #3F78C6",
"@&	c #3377C7",
"#&	c #2962BD",
"$&	c #2356B8",
"%&	c #2B66BE",
"&&	c #2F6FC3",
"*&	c #2860BC",
"=&	c #1941B1",
"-&	c #0E28AB",
";&	c #0D27AB",
">&	c #173BAF",
",&	c #275FBC",
"'&	c #3B87D0",
")&	c #459DDC",
"!&	c #4EA1DD",
"~&	c #D3A99B",
"{&	c #E7AB76",
"]&	c #A8915C",
"^&	c #38632E",
"/&	c #1D541D",
"(&	c #399C37",
"_&	c #B0BC91",
":&	c #DFAF7E",
"<&	c #E7AC75",
"[&	c #E6AA83",
"}&	c #97739D",
"|&	c #3645AF",
"1&	c #173DB0",
"2&	c #102DAC",
"3&	c #0A20AA",
"4&	c #0B23AA",
"5&	c #0F2AAB",
"6&	c #091FA9",
"7&	c #0616A8",
"8&	c #0512A8",
"9&	c #0717A8",
"0&	c #1538AF",
"a&	c #3883CD",
"b&	c #4195D7",
"c&	c #4CA0DD",
"d&	c #719BD0",
"e&	c #AB98AE",
"f&	c #DBB199",
"g&	c #CFAE7F",
"h&	c #808E60",
"i&	c #255A23",
"j&	c #2A9B2A",
"k&	c #7BAD72",
"l&	c #A8B079",
"m&	c #B9A765",
"n&	c #CEA76A",
"o&	c #DCAA77",
"p&	c #D09F91",
"q&	c #7759A0",
"r&	c #1E20A9",
"s&	c #0718A9",
"t&	c #0614A8",
"u&	c #081BA9",
"v&	c #102EAC",
"w&	c #1E4BB4",
"x&	c #2964BD",
"y&	c #367DCA",
"z&	c #4297D8",
"A&	c #479FDE",
"B&	c #5390CE",
"C&	c #92A4A9",
"D&	c #81A675",
"E&	c #40813B",
"F&	c #225D22",
"G&	c #1D501D",
"H&	c #1D991D",
"I&	c #2D9B2C",
"J&	c #3D9B38",
"K&	c #479239",
"L&	c #628A4A",
"M&	c #848E68",
"N&	c #857E8A",
"O&	c #463F9E",
"P&	c #1118A8",
"Q&	c #0613A8",
"R&	c #0719A9",
"S&	c #0A21AA",
"T&	c #183EB0",
"U&	c #357BC8",
"V&	c #3F97C7",
"W&	c #488C71",
"X&	c #278027",
"Y&	c #1B661B",
"Z&	c #197019",
"`&	c #1A981A",
" *	c #128C12",
".*	c #255626",
"+*	c #376253",
"@*	c #1D418D",
"#*	c #0D1CA7",
"$*	c #0814A8",
"%*	c #0719A8",
"&*	c #1E4CB4",
"**	c #3985CE",
"=*	c #47A0DD",
"-*	c #368EAA",
";*	c #277039",
">*	c #177617",
",*	c #1D7A1D",
"'*	c #178517",
")*	c #169816",
"!*	c #0E950E",
"~*	c #167D16",
"{*	c #215328",
"]*	c #1A5173",
"^*	c #0D23A3",
"/*	c #0C17A8",
"(*	c #0A20A9",
"_*	c #2050B5",
":*	c #3C8BD1",
"<*	c #469ED7",
"[*	c #31808A",
"}*	c #215A25",
"|*	c #177F17",
"1*	c #167C16",
"2*	c #158415",
"3*	c #169516",
"4*	c #159515",
"5*	c #1A6D1A",
"6*	c #1F5424",
"7*	c #165B6D",
"8*	c #0925A3",
"9*	c #151DA8",
"0*	c #131CA8",
"a*	c #0513A8",
"b*	c #0713A8",
"c*	c #141CA8",
"d*	c #0A15A8",
"e*	c #0B22AA",
"f*	c #2861BC",
"g*	c #3F8FD4",
"h*	c #4197CB",
"i*	c #2F7368",
"j*	c #1F5220",
"k*	c #177C17",
"l*	c #198019",
"m*	c #1C5E1C",
"n*	c #1D6228",
"o*	c #136373",
"p*	c #0C28A4",
"q*	c #111AA8",
"r*	c #2025A9",
"s*	c #1E24A9",
"t*	c #131BA8",
"u*	c #0B15A8",
"v*	c #1C22A9",
"w*	c #171EA8",
"x*	c #163AAF",
"y*	c #2860BB",
"z*	c #3175C2",
"A*	c #2A739C",
"B*	c #28693E",
"C*	c #18732F",
"D*	c #12687D",
"E*	c #1A33A5",
"F*	c #1924A8",
"G*	c #151FA8",
"H*	c #161EA8",
"I*	c #1920A9",
"J*	c #0B16A8",
"K*	c #141DA8",
"L*	c #0D17A8",
"M*	c #0714A8",
"N*	c #161EA9",
"O*	c #0D1EA9",
"P*	c #0F2BAB",
"Q*	c #1546A0",
"R*	c #1A655F",
"S*	c #1F5821",
"T*	c #1F4F1F",
"U*	c #1F651F",
"V*	c #1C661C",
"W*	c #1D5E1D",
"X*	c #1F5D1F",
"Y*	c #1D7023",
"Z*	c #157C50",
"`*	c #0E5C8C",
" =	c #0B22A6",
".=	c #0C18A8",
"+=	c #101BA8",
"@=	c #1821A8",
"#=	c #131DA8",
"$=	c #0915A8",
"%=	c #0A16A8",
"&=	c #0815A8",
"*=	c #0C26A5",
"==	c #0F5685",
"-=	c #1D6637",
";=	c #1C561C",
">=	c #1F511F",
",=	c #266E26",
"'=	c #1D821D",
")=	c #1F8422",
"!=	c #1A8A2D",
"~=	c #0C7B64",
"{=	c #085094",
"]=	c #051CA7",
"^=	c #1A24A8",
"/=	c #22429F",
"(=	c #1B6F6E",
"_=	c #1D6924",
":=	c #1D4E1D",
"<=	c #187418",
"[=	c #1D571D",
"}=	c #1A691A",
"|=	c #1B741B",
"1=	c #1A8F1A",
"2=	c #129612",
"3=	c #1D9720",
"4=	c #1F9435",
"5=	c #0E7C6B",
"6=	c #0E4D95",
"7=	c #111EA5",
"8=	c #0A14A7",
"9=	c #0612A8",
"0=	c #0E16A6",
"a=	c #1017A6",
"b=	c #0F16A6",
"c=	c #0E16A7",
"d=	c #151CA6",
"e=	c #181CA5",
"f=	c #161AA4",
"g=	c #171AA4",
"h=	c #181BA4",
"i=	c #171BA4",
"j=	c #1218A6",
"k=	c #0F1CA6",
"l=	c #154598",
"m=	c #1D7154",
"n=	c #1D5F1E",
"o=	c #1D521D",
"p=	c #118B11",
"q=	c #138913",
"r=	c #158315",
"s=	c #18981C",
"t=	c #248957",
"u=	c #325A82",
"v=	c #3A398E",
"w=	c #312E99",
"x=	c #2021A2",
"y=	c #1519A5",
"z=	c #2020A1",
"A=	c #2D299A",
"B=	c #362F93",
"C=	c #3B338F",
"D=	c #3C348E",
"E=	c #3C358F",
"F=	c #3C3892",
"G=	c #434194",
"H=	c #50508D",
"I=	c #524D82",
"J=	c #4D437D",
"K=	c #4C407A",
"L=	c #4C4079",
"M=	c #4B407C",
"N=	c #433A87",
"O=	c #323094",
"P=	c #1C4489",
"Q=	c #1A5E43",
"R=	c #1E4F1E",
"S=	c #138313",
"T=	c #157F15",
"U=	c #167A16",
"V=	c #259926",
"W=	c #488D57",
"X=	c #5A675B",
"Y=	c #625759",
"Z=	c #5F576C",
"`=	c #544F81",
" -	c #484186",
".-	c #4D427C",
"+-	c #55486D",
"@-	c #5A4C60",
"#-	c #5C4E5B",
"$-	c #5D505B",
"%-	c #60535C",
"&-	c #63595F",
"*-	c #675F61",
"=-	c #685F57",
"--	c #655847",
";-	c #645546",
">-	c #635344",
",-	c #635342",
"'-	c #61524C",
")-	c #574B65",
"!-	c #364B6D",
"~-	c #1F5033",
"{-	c #2F9A2E",
"]-	c #54894D",
"^-	c #615E3C",
"/-	c #64543A",
"(-	c #655741",
"_-	c #675B50",
":-	c #655A54",
"<-	c #64564A",
"[-	c #645441",
"}-	c #64543D",
"|-	c #64543C",
"1-	c #65553D",
"2-	c #65553E",
"3-	c #645339",
"4-	c #62543E",
"5-	c #4C5B53",
"6-	c #265331",
"7-	c #51A150",
"8-	c #648256",
"9-	c #63573A",
"0-	c #645439",
"a-	c #64543B",
"b-	c #65543B",
"c-	c #65553C",
"d-	c #65553B",
"e-	c #65563F",
"f-	c #625539",
"g-	c #56644B",
"h-	c #335E3A",
"i-	c #1F4B1F",
"  . + @ # $ % & * = - ; > , , , , , , , , , , , , > ' ) ! ~ { ] ^ / ( / _ : < [ ",
"( } | 1 2 3 4 5 6 7 8 , , , , , , , , , , , , , , , , 9 0 a b c d e ( _ f g h i ",
"_ j k l m n o p q r , , , s t u v v w w v x v s , , , y z A 2 3 B C D : g E F G ",
"d H I E J K L M N , , O P Q R S T U V W X Y V Z `  ., ..+.@.#.#.$.%.] ] h &.3 # ",
"E $.m *.=.-.;.>.,.` '.).!.~.{.].^./.(._.:.<.[.}.|.1.2.3.4.5.m #.3 E 6.7.7.8.9.0.",
"3 2 #.$.a.b.c.d.e.f.g.h.i.j.k.l.m.n.n.n.o.p.q.r.s.t.u.v.w.x.y.3 z.A.A.*.B.C.D.E.",
"3 2 2 &.F.G.H.I.J.K.L.M.N.O.P.Q.R.n.n.S.T.U.V.W.X.Y.Z.`. +.+++@+y.n 2 2 n 8.f } ",
"b y.#+$+%+&+*+=+-+;+>+,+'+)+!+~+{+m.n.]+^+/+(+_+:+<+[+}+|+1+2+3+4+5+6+z.&.=.7+8+",
"9+0+a+b+c+d+e+f+g+;+h+i+j+k+l+m+n+o+n.p+q+r+s+t+u+v+w+x+y+z+A+B+C+D+E+F+G+H+I+J+",
"K+L+M+N+O+P+Q+R+S+T+U+V+W+X+Y+Z+`+ @.@+@@@#@$@%@&@*@=@-@;@>@,@'@)@!@~@{@]@^@z./@",
"(@_@:@<@[@}@|@1@2@3@4@5@6@7@8@9@0@a@b@c@d@e@f@g@h@i@x+n.j@k@l@m@n@o@p@q@r@s@t@u@",
"v@w@x@y@z@A@B@C@D@E@n.F@G@H@I@J@K@L@M@N@O@P@Q@T+;+R@n.n.S@T@U@V@W@n.X@Y@Z@`@#+ #",
".#+#@###$#%#&#C@*#=#R@-#;#>#,#'#)#, , !#~#{#]#S.n.n.n.^#/#(#_#:#^#n.n.<#[#}#|#1#",
"2#3#4#5#6#7#8#B@9#f+0#a#b#c#d#e#> , , , e#f#g#h#n.n.g+i#9#j#k#l#E@n.n.m#n#o#p#^ ",
"v@q#r#s#n.t#u#v#P+w#x#y#b#c#z#u A#, , , v f#B#h#n.C#D#E#F#G#H#I#J#n.n.S.K#L#M#N#",
"v@O#P#s#n.n.Q#R#S#T#U#V#W#>#V X#Y#Z#`#Z# ${#]#S.3@.$+$j#@$#$$$%$&$n.n.*$=$-$;$>$",
",$'$)$s#n.n.6#!$~${$]$^$/$($_$:$a@O@<$[$}$|$1$2$3$4$5$6$7$S#8$9$n.n.n.S.0$a$b$v@",
"c$d$e$f$n.n.g$h$i$j$k$_#l$m$n$o$p$q$r$s$t$u$A@E#v$w$x$y$z$A$B$C$n.n.n.n.D$E$F$N#",
"G$H$I$J$n.n.g$K$L${$y$6$M$U#N$O$P$R+Q$B@R$S$k#T$U$x$y$y${$V$W$R@n.n.n.n.X$Y$Z$`$",
" %.%+%m#n.n.g$@%#%@$k$y$x$$%@$@$,@%%&%$%$%x$y$y$y$y$y$y$&%*%=%R@n.n.n.n.-%;%>%,%",
"'%)%!%s#n.n.~%{%]%^%/%(%y$y$y$x$x$y$y$y$y$x$y$y$y$6$6$y$%%_%z@n.n.n.n.*$:%<%[%}%",
"|%1%2%3%n.n.4%5%6%@$x$7%y$y$y$y$y$y$y$y$y$y$y$y$8%9%0%y$a%b%3@n.n.n.n.c%d%e%f%d ",
"g%h%i%F@n.n.4%j%k%l%m%n%o%y$y$m%n%p%q%o%r%0%m%s%0%t%u%y$G#v%w%n.n.n.n.x%y%z%b A%",
"B%C%D%;+n.n.g$E%F%G%H%I%J%K%L%M%N%O%P%Q%R%S%H%m%y$y$m%m%T%A$U%C$n.n.h#V%W%X%&.9.",
"(@Y%Z%`%n.n.R@ &.&+&@&#&$&%&&&*&=&-&;&;&>&,&'&)&8%y$y$y$y$!&&#~&=#R@{&]&^&3 /&6.",
"( (&_&:&<&F@n.[&}&|&1&2&3&4&5&6&7&8&8&8&9&0&*&a&b&q%s%y$y$y$c&d&e&f&g&h&i&2 &.h ",
"( j&k&l&m&n&o&p&q&r&s&t&8&8&8&8&8&8&8&8&8&u&v&w&x&y&z&y$y$y$y$A&B&C&D&E&F&G&b 7+",
"( H&I&J&K&L&M&N&O&P&Q&8&8&8&8&8&8&8&8&8&8&8&t&R&S&T&U&)&y$y$y$y$V&W&X&g Y&# Z&E.",
"  `&   *%.X%.*+*@*#*$*8&8&8&8&8&8&8&8&8&8&8&8&8&8&%*&***u%y$y$=*-*;*I  #>*,*'*e ",
")*v@!*~*&.#.#.{*]*^*/*Q&8&8&8&8&8&8&8&8&8&8&8&8&8&8&(*_*:*0%y$<*[*}*m l >*|*1*2*",
"3*4*8+5*n #.#.6*7*8*9*0*a*8&8&8&8&Q&Q&8&8&8&8&8&b*c*d*e*f*g*)&h*i*j*#.$.A%I /&9.",
"k*l*~*m*m #.m n*o*p*q*r*s*t*Q&8&8&8&$*q*u*8&Q&8&Q&v*w*7&x*y*z*A*B*z.2 $./&2 #.m ",
"/&9.8./&3 2 /&C*D*E*F*G*H*I*J*8&8&8&b*q*K*L*M*8&8&J*N*M*O*P*Q*R*S*m 2 $.z.#.#.2 ",
"#.T*U*V*W*X*Y*Z*`* =.=+=@=#=$*b*$=%=$*$=&=Q&8&8&8&8&b*J*#=*===-=n #.2 ;=1 m #.A.",
"2 >=,='=i )=!=~={=]=8&8&M*J*J*$=$=&=8&8&8&8&8&8&8&8&8&$=^=/=(=_=:=#.:=c <=B [=}=",
"n @.|=1=2=3=4=5=6=7=8=9=8&Q&8=0=a=a=a=b=c=d=e=f=g=h=i=j=k=l=m=n=3 #.o=h p=q=r=q=",
"m :=A%q=/ N#s=t=u=v=w=x=y=z=A=B=C=D=E=F=G=H=I=J=K=L=M=N=O=P=Q=R=#.#.o=|%: p=S=T=",
"#.#.G&U=!*( V=W=X=Y=Z=`= -.-+-@-#-$-%-&-*-=---;->-,-,-'-)-!-~-#.#.#.o=}=Z&Y&E &.",
"#.#.2 =._ ( {-]-^-/-(-_-:-<-[-}-|-|-|-1-2-/-, 3-, , , 3-4-5-6-#.#.#.n G&G&m 2 #.",
"#.#.#.y.8+2#7-8-9-3-0-a-b-/-/-b-c-c-c-b-0-3-3-d-e-c-, , f-g-h-i-#.#.2 #.#.#.#.2 "};
