/* XPM */
static char * player_xpm[] = {
"40 40 246 2",
"  	c #000000",
". 	c #010000",
"+ 	c #020000",
"@ 	c #030000",
"# 	c #050000",
"$ 	c #040000",
"% 	c #060000",
"& 	c #070000",
"* 	c #0B0000",
"= 	c #170000",
"- 	c #240000",
"; 	c #250000",
"> 	c #2A0000",
", 	c #270000",
"' 	c #290000",
") 	c #2D0000",
"! 	c #2F0000",
"~ 	c #2C0000",
"{ 	c #2E0000",
"] 	c #2B0000",
"^ 	c #260000",
"/ 	c #210000",
"( 	c #1C0000",
"_ 	c #150000",
": 	c #0A0000",
"< 	c #1E0000",
"[ 	c #3F0000",
"} 	c #560000",
"| 	c #620000",
"1 	c #670000",
"2 	c #660000",
"3 	c #690000",
"4 	c #6E0000",
"5 	c #6F0000",
"6 	c #710000",
"7 	c #700000",
"8 	c #6D0000",
"9 	c #6A0000",
"0 	c #650000",
"a 	c #630000",
"b 	c #5F0000",
"c 	c #5B0000",
"d 	c #4B0000",
"e 	c #370000",
"f 	c #080000",
"g 	c #0D0000",
"h 	c #350000",
"i 	c #8E0000",
"j 	c #A40000",
"k 	c #AC0000",
"l 	c #AB0000",
"m 	c #AD0000",
"n 	c #B00000",
"o 	c #B50000",
"p 	c #B70000",
"q 	c #B60000",
"r 	c #B40000",
"s 	c #B30000",
"t 	c #AE0000",
"u 	c #A90000",
"v 	c #A60000",
"w 	c #A70000",
"x 	c #A50000",
"y 	c #A30000",
"z 	c #A10000",
"A 	c #9F0000",
"B 	c #9C0000",
"C 	c #950000",
"D 	c #820000",
"E 	c #600000",
"F 	c #340000",
"G 	c #120000",
"H 	c #140000",
"I 	c #470000",
"J 	c #8A0000",
"K 	c #BD0000",
"L 	c #D40000",
"M 	c #DF0000",
"N 	c #E20000",
"O 	c #E40000",
"P 	c #E50000",
"Q 	c #E80000",
"R 	c #E90000",
"S 	c #E60000",
"T 	c #E70000",
"U 	c #DC0000",
"V 	c #DB0000",
"W 	c #D80000",
"X 	c #D60000",
"Y 	c #D50000",
"Z 	c #D20000",
"` 	c #D10000",
" .	c #CF0000",
"..	c #C80000",
"+.	c #800000",
"@.	c #440000",
"#.	c #160000",
"$.	c #550000",
"%.	c #9A0000",
"&.	c #D00000",
"*.	c #ED0000",
"=.	c #F80000",
"-.	c #F90000",
";.	c #FC0000",
">.	c #FD0000",
",.	c #FB0000",
"'.	c #FA0000",
").	c #F70000",
"!.	c #F40000",
"~.	c #F30000",
"{.	c #F20000",
"].	c #F10000",
"^.	c #EF0000",
"/.	c #CC0000",
"(.	c #920000",
"_.	c #4F0000",
":.	c #180000",
"<.	c #D90000",
"[.	c #FE0000",
"}.	c #FF0000",
"|.	c #970000",
"1.	c #4E0000",
"2.	c #A20000",
"3.	c #F60000",
"4.	c #F00000",
"5.	c #F50000",
"6.	c #D30000",
"7.	c #960000",
"8.	c #4C0000",
"9.	c #130000",
"0.	c #CD0000",
"a.	c #A00000",
"b.	c #850000",
"c.	c #810000",
"d.	c #C90000",
"e.	c #DE0000",
"f.	c #B90000",
"g.	c #9D0000",
"h.	c #940000",
"i.	c #580000",
"j.	c #7C0000",
"k.	c #3A0000",
"l.	c #190000",
"m.	c #360000",
"n.	c #790000",
"o.	c #E00000",
"p.	c #9B0000",
"q.	c #590000",
"r.	c #310000",
"s.	c #540000",
"t.	c #8F0000",
"u.	c #490000",
"v.	c #450000",
"w.	c #433100",
"x.	c #624900",
"y.	c #400000",
"z.	c #AA0000",
"A.	c #BE0000",
"B.	c #1F1400",
"C.	c #624800",
"D.	c #B10000",
"E.	c #5A0000",
"F.	c #D5A400",
"G.	c #F0B800",
"H.	c #684900",
"I.	c #910000",
"J.	c #EC0000",
"K.	c #A80000",
"L.	c #3D0000",
"M.	c #947000",
"N.	c #684800",
"O.	c #D70000",
"P.	c #DD0000",
"Q.	c #300000",
"R.	c #6A4900",
"S.	c #410000",
"T.	c #694800",
"U.	c #500000",
"V.	c #1A0000",
"W.	c #BA0000",
"X.	c #634900",
"Y.	c #B80000",
"Z.	c #C10000",
"`.	c #510000",
" +	c #DA0000",
".+	c #C70000",
"++	c #C00000",
"@+	c #1F0000",
"#+	c #640000",
"$+	c #AF0000",
"%+	c #EB0000",
"&+	c #740000",
"*+	c #E10000",
"=+	c #6C0000",
"-+	c #330000",
";+	c #780000",
">+	c #840000",
",+	c #570000",
"'+	c #280000",
")+	c #BB0000",
"!+	c #E30000",
"~+	c #200000",
"{+	c #EA0000",
"]+	c #380000",
"^+	c #7E0000",
"/+	c #BC0000",
"(+	c #990000",
"_+	c #530000",
":+	c #090000",
"<+	c #3B0000",
"[+	c #100000",
"}+	c #760000",
"|+	c #BF0000",
"1+	c #3C0000",
"2+	c #C40000",
"3+	c #7A0000",
"4+	c #750000",
"5+	c #880000",
"6+	c #C50000",
"7+	c #480000",
"8+	c #0C0000",
"9+	c #870000",
"0+	c #C60000",
"a+	c #5D0000",
"b+	c #B20000",
"c+	c #3E0000",
"d+	c #C30000",
"e+	c #430000",
"f+	c #830000",
"g+	c #7D0000",
"h+	c #730000",
"i+	c #6B0000",
"j+	c #CA0000",
"k+	c #7F0000",
"l+	c #8C0000",
"m+	c #1D0000",
"n+	c #EE0000",
"o+	c #720000",
"p+	c #680000",
"q+	c #220000",
"r+	c #460000",
"s+	c #390000",
"t+	c #230000",
"u+	c #110000",
"v+	c #0E0000",
"w+	c #0F0000",
"            .                   .                                               ",
"      . + @ # # # $ $ # % % & % % % # & & # % % # # # % % % % % $ $ + + . . .   ",
"      @ * = - ; > , > ' ) ) ! ) ) ) ~ ) { ! ! ! ] ~ ' > > ~ > ' ^ / ( _ : @     ",
"    . % < [ } | 1 2 3 3 4 5 6 7 4 5 8 5 4 8 8 8 9 3 0 1 0 3 0 a b c d e < f .   ",
"    . g h 2 i j k l m n o o p q q r s s r s n t l u v w x y z A B C D E F G .   ",
"    . H I J K L M M N O P Q R R Q S P S T O N M U V W X L Y Z `  ...t +.@.#..   ",
"    . = $.%.&.*.=.=.=.-.;.;.>.;.,.;.;.;.,.'.'.'.).).!.~.{.{.].].^.T /.(._.:..   ",
"    . :.$.z <.).[.}.}.}.}.}.}.}.}.}.}.}.}.}.}.}.}.}.>.>.>.>.>.>.,.].L |.1._ .   ",
"    . = $.2.U 3.[.,.Q V V P ;.}.}.}.}.}.}.}.}.}.}.[.4.P P 4.,.}.[.5.6.7.8.9..   ",
"    . = $.2.U =.!.0.a.b.c.A d.{.}.}.}.}.}.}.}.}.-.e.f.A g.s W =.>.!.Z h.d G .   ",
"    . = i.v M {.&.j.k.l.l.m.n./.;.}.}.}.}.}.}.[.o.p.q.m.r.s.t.<.'.!.6.h.u.G .   ",
"    . = i.x U O l v.#   w.x.y.z.R }.}.}.}.}.}.4.A.b _ . B.C._.D.*.!.Y C d G .   ",
"    . l.E.x U M C ^   w.F.G.H.I.O }.}.}.}.}.}.J.K.L.. B.M.G.N.|.P 3.O.7._._ .   ",
"    . :.E.j <.P.p.Q.. w.F.G.R.g.O }.}.}.}.}.}.J.k S.+ B.M.G.T.|.P =.W p.U.= .   ",
"    . V.c j V Q W.i.#.+ w.X.i.Y.5.}.}.}.}.}.}.~.Z.2 V.+ B.C.`.r *.-.U 2.$.l..   ",
"    . V.E.j V ~.N z 0 v.v.0 2.P }.}.}.}.}.}.}.}.S j a L.e i.(. +,.-.o.v c ( +   ",
"    + < E K.V ~.).T .+n D...R ,.}.}.}.}.}.}.}.}.,.O ++K.j W. +=.}.,.N k | @++   ",
"    + @+a l V !.[.}.5.].].).}.}.}.}.}.}.}.}.}.}.}.}.!.R R ].,.}.}.;.T n #+/ +   ",
"    @ ; 9 $+P.3.[.}.}.}.}.}.}.}.}.}.}.O O O }.}.}.}.}.}.}.}.}.}.}.>.R s 3 - @   ",
"    # > 6 o M ).}.}.}.}.}.}.}.}.O d.r A A A r d.O }.}.}.}.}.}.}.}.>.%+o 9 ; @   ",
"    % Q.&+Y.*+).[.}.}.}.}.}.}.d.A 5 q.@.@.@.q.5 A d.}.}.}.}.}.}.}.>.R f.=+, @   ",
"    & -+;+W.O =.[.}.}.}.}.}.d.>+,+! _ * * * _ ! ,+>+d.}.}.}.}.}.}.;.R p 8 '+@   ",
"    & -+n.)+!+).[.}.}.}.}.d.>+S.~+$ + . . . + $ ~+S.>+d.}.}.}.}.}.'.{+Y.6 > $   ",
"    f ]+^+/+P =.[.}.}.}.O (+_+< @ . . . . . . . @ < _+(+O }.}.}.}.,.R W.6 ) $   ",
"    :+]+^+K !+).>.}.}.}.d.3 ) @ . .           . . @ ) 3 d.}.}.}.}.;.S W.&+! $   ",
"    : <+c.K P ).[.}.}.!.z.1.[+. .               . . [+1.z.!.}.}.}.'.T /+}+Q.#   ",
"    :+k.c.|+S =.[.}.}.O C 1+& . .               . . & 1+C O }.}.}.'.R K ;+-+%   ",
"    : 1+b.2+Q ).[.}.}.O I.e # .                   . # e I.O }.}.[.-.R A.3+Q.%   ",
"    * L.b.2+R -.[.}.}.O I.e # .                   . # e I.O }.}.[.'.{+|+4+! #   ",
"    * [ 5+6+R -.[.}.}.O y 7+* . .               . . * 7+y O }.}.[.-.S Y.4 > $   ",
"  . 8+L.9+0+T -.[.}.}.}.W.a+/ + . .           . . + / a+W.}.}.}.}.'.S b+1 ; @   ",
"    8+c+5+d+S ).>.}.}.}.O b.e+[+. . .       . . . [+e+b.O }.}.}.[.-.*+l E ~++   ",
"  . * 1+f+++N 5.;.[.[.}.[.o 6 r.[+. . . . . . . [+r.8 /+>.[.}.}.>.3.P.j E.( .   ",
"    : k.g+q W R {.~.!.{.!.%+2+h+,+L.f + + + f V.<+i+s ].).).).).3.^.Y p.$.l..   ",
"    & ) i+2.++Z O.W X X M J.~.o.e.j+c U.y.c+_+b k+..{+S M e.P.o.M O.K l+u.#..   ",
"    $ m+d ;+h.z K.K.K.x y w j+R !.n+Y O /.0+e.o.W  +e.e.m $+$+b+D.t %.o+<+[+.   ",
"    . 8+'+e+,+a p+3 9 2 0 b 1 3+d. .&. + +Q 4.S Y z q n.9 7 h+}+}+&+a u.^ :+.   ",
"      + : :.q+'+] ~ ) > ] , '+q+c+S.r+p+p+} a $.u.-+L.r.r.s+<+L.<+k.Q.t+[+@ .   ",
"        . + $ # # # % # # # $ $ $ + @ u+[++ $ $ @ # & :+* v+v+[+w+v+: % @ .     ",
"                      .                               . . . . . . . .           "};
