/* XPM */
static char * wall_xpm[] = {
"40 40 649 2",
"  	c #2E1C01",
". 	c #301C02",
"+ 	c #351B0D",
"@ 	c #250F08",
"# 	c #070202",
"$ 	c #070605",
"% 	c #292621",
"& 	c #48443D",
"* 	c #555048",
"= 	c #575149",
"- 	c #58524A",
"; 	c #544B44",
"> 	c #4C3933",
", 	c #442321",
"' 	c #431D1B",
") 	c #421918",
"! 	c #411515",
"~ 	c #411616",
"{ 	c #421717",
"] 	c #411919",
"^ 	c #331010",
"/ 	c #301A04",
"( 	c #210E04",
"_ 	c #050100",
": 	c #2A2722",
"< 	c #4A453E",
"[ 	c #565149",
"} 	c #524740",
"| 	c #472A27",
"1 	c #401515",
"2 	c #411615",
"3 	c #3A1212",
"4 	c #260909",
"5 	c #2F1C01",
"6 	c #2F1C02",
"7 	c #301B03",
"8 	c #2B1504",
"9 	c #170902",
"0 	c #030000",
"a 	c #0D0404",
"b 	c #291D19",
"c 	c #433732",
"d 	c #524942",
"e 	c #575048",
"f 	c #411717",
"g 	c #3D1711",
"h 	c #3C1711",
"i 	c #361010",
"j 	c #1E0707",
"k 	c #321B05",
"l 	c #2E1C02",
"m 	c #331C07",
"n 	c #381C10",
"o 	c #391B0F",
"p 	c #351B0A",
"q 	c #341A07",
"r 	c #351909",
"s 	c #321608",
"t 	c #281205",
"u 	c #190A02",
"v 	c #100402",
"w 	c #190505",
"x 	c #290A0A",
"y 	c #381615",
"z 	c #422422",
"A 	c #49332E",
"B 	c #50443D",
"C 	c #564E46",
"D 	c #565047",
"E 	c #534841",
"F 	c #4E3F38",
"G 	c #47322C",
"H 	c #411E1A",
"I 	c #3A180E",
"J 	c #351A08",
"K 	c #3F1613",
"L 	c #3C1313",
"M 	c #310D0D",
"N 	c #3B180F",
"O 	c #331B06",
"P 	c #35210F",
"Q 	c #412821",
"R 	c #462F29",
"S 	c #462B26",
"T 	c #42211D",
"U 	c #3E1913",
"V 	c #3C1612",
"W 	c #300F0C",
"X 	c #1D0705",
"Y 	c #130403",
"Z 	c #280A0A",
"` 	c #351010",
" .	c #3D1313",
"..	c #462523",
"+.	c #4A3530",
"@.	c #4D4039",
"#.	c #4A4138",
"$.	c #44392F",
"%.	c #3B2C1F",
"&.	c #391D11",
"*.	c #36190B",
"=.	c #321A06",
"-.	c #3A1411",
";.	c #3E1414",
">.	c #401514",
",.	c #39180E",
"'.	c #311C06",
").	c #3E2B21",
"!.	c #4D3D37",
"~.	c #50423C",
"{.	c #49312D",
"].	c #3B1212",
"^.	c #2A0B0B",
"/.	c #170404",
"(.	c #1B0505",
"_.	c #290B0B",
":.	c #421616",
"<.	c #411817",
"[.	c #3B1F19",
"}.	c #352111",
"|.	c #312009",
"1.	c #2F1D03",
"2.	c #3E1612",
"3.	c #2E1805",
"4.	c #371210",
"5.	c #3E1613",
"6.	c #371D0E",
"7.	c #45342C",
"8.	c #544B43",
"9.	c #564F47",
"0.	c #4E3F39",
"a.	c #3D221F",
"b.	c #240B0A",
"c.	c #160404",
"d.	c #230808",
"e.	c #340F0F",
"f.	c #411818",
"g.	c #3F1515",
"h.	c #3F1717",
"i.	c #371813",
"j.	c #311906",
"k.	c #311B04",
"l.	c #2D1803",
"m.	c #3B1512",
"n.	c #401919",
"o.	c #3D1813",
"p.	c #534941",
"q.	c #575148",
"r.	c #565048",
"s.	c #4B433C",
"t.	c #2C221E",
"u.	c #1B0908",
"v.	c #2B0C0B",
"w.	c #421515",
"x.	c #3B1613",
"y.	c #301509",
"z.	c #2F1A05",
"A.	c #311A05",
"B.	c #351111",
"C.	c #421E1C",
"D.	c #4C3B35",
"E.	c #554D46",
"F.	c #554F47",
"G.	c #454039",
"H.	c #29201B",
"I.	c #2E130B",
"J.	c #39160F",
"K.	c #3D1414",
"L.	c #2B110D",
"M.	c #221207",
"N.	c #291804",
"O.	c #2F1E06",
"P.	c #3E1712",
"Q.	c #3C1414",
"R.	c #220707",
"S.	c #462B27",
"T.	c #51463F",
"U.	c #4F4942",
"V.	c #3D3730",
"W.	c #2E1F13",
"X.	c #37190B",
"Y.	c #1D0808",
"Z.	c #18130F",
"`.	c #2A241C",
" +	c #382E24",
".+	c #372A1C",
"++	c #31220D",
"@+	c #361A0A",
"#+	c #3F1614",
"$+	c #391311",
"%+	c #210D05",
"&+	c #442421",
"*+	c #524B43",
"=+	c #3E352D",
"-+	c #311F0D",
";+	c #38190C",
">+	c #401614",
",+	c #3A190E",
"'+	c #3D1710",
")+	c #330F0F",
"!+	c #210909",
"~+	c #17110F",
"{+	c #312D28",
"]+	c #47423B",
"^+	c #504A42",
"/+	c #4A433A",
"(+	c #3C3125",
"_+	c #311F08",
":+	c #311C03",
"<+	c #3D1612",
"[+	c #331C11",
"}+	c #462825",
"|+	c #51453E",
"1+	c #544C44",
"2+	c #43342C",
"3+	c #311F09",
"4+	c #3D1712",
"5+	c #36190A",
"6+	c #35140C",
"7+	c #2A0F09",
"8+	c #1C0A06",
"9+	c #100806",
"0+	c #26231F",
"a+	c #49443D",
"b+	c #565148",
"c+	c #4B423A",
"d+	c #3B231A",
"e+	c #3A190F",
"f+	c #39190D",
"g+	c #361A09",
"h+	c #371D0F",
"i+	c #421818",
"j+	c #49322E",
"k+	c #524841",
"l+	c #412C24",
"m+	c #311D04",
"n+	c #2C1902",
"o+	c #281702",
"p+	c #251707",
"q+	c #282118",
"r+	c #3F3A34",
"s+	c #442824",
"t+	c #401815",
"u+	c #39190E",
"v+	c #36180C",
"w+	c #331C06",
"x+	c #431E1C",
"y+	c #462A26",
"z+	c #51463E",
"A+	c #3C1F18",
"B+	c #2E1D02",
"C+	c #332515",
"D+	c #40382E",
"E+	c #514B43",
"F+	c #534942",
"G+	c #431E1E",
"H+	c #3E1818",
"I+	c #31100C",
"J+	c #2C1406",
"K+	c #341908",
"L+	c #331A07",
"M+	c #301C03",
"N+	c #431D1C",
"O+	c #482F2B",
"P+	c #4E3D37",
"Q+	c #52463F",
"R+	c #4D3B35",
"S+	c #44221F",
"T+	c #3B1911",
"U+	c #311B03",
"V+	c #2F1E05",
"W+	c #392D1F",
"X+	c #4C453C",
"Y+	c #585249",
"Z+	c #51443E",
"`+	c #452320",
" @	c #2E0E0E",
".@	c #250B0A",
"+@	c #2D140B",
"@@	c #321C0A",
"#@	c #301C04",
"$@	c #411716",
"%@	c #50413B",
"&@	c #472B27",
"*@	c #2E1D03",
"=@	c #301F07",
"-@	c #2F1D04",
";@	c #4E473E",
">@	c #4C3A35",
",@	c #3F1C1B",
"'@	c #320F0F",
")@	c #351313",
"!@	c #3C1F19",
"~@	c #331C08",
"{@	c #431F1D",
"]@	c #4B3832",
"^@	c #49302C",
"/@	c #32220E",
"(@	c #372A1B",
"_@	c #3D3225",
":@	c #3E3327",
"<@	c #322310",
"[@	c #4E463D",
"}@	c #442C28",
"|@	c #341211",
"1@	c #3C1717",
"2@	c #421D1C",
"3@	c #3A1B11",
"4@	c #421C1B",
"5@	c #452825",
"6@	c #401C18",
"7@	c #3A1B14",
"8@	c #311C0E",
"9@	c #35281A",
"0@	c #41382D",
"a@	c #4B433A",
"b@	c #514A41",
"c@	c #514B42",
"d@	c #4A4339",
"e@	c #3C3124",
"f@	c #31200A",
"g@	c #342514",
"h@	c #453C31",
"i@	c #544D45",
"j@	c #4B3C36",
"k@	c #3A1D1B",
"l@	c #391312",
"m@	c #401817",
"n@	c #441E1D",
"o@	c #421A18",
"p@	c #411918",
"q@	c #3F1A18",
"r@	c #401616",
"s@	c #431C1B",
"t@	c #452624",
"u@	c #412B27",
"v@	c #392621",
"w@	c #382520",
"x@	c #42342E",
"y@	c #50463E",
"z@	c #575249",
"A@	c #544E45",
"B@	c #342412",
"C@	c #2F1F06",
"D@	c #4F443D",
"E@	c #3F2825",
"F@	c #3E1817",
"G@	c #431E1D",
"H@	c #472B28",
"I@	c #4B3530",
"J@	c #4A332F",
"K@	c #462E29",
"L@	c #3A261B",
"M@	c #311E07",
"N@	c #31210B",
"O@	c #401716",
"P@	c #472D29",
"Q@	c #483C35",
"R@	c #4A3F38",
"S@	c #452F2B",
"T@	c #42221F",
"U@	c #452724",
"V@	c #585149",
"W@	c #4D463C",
"X@	c #463D33",
"Y@	c #544C45",
"Z@	c #483A34",
"`@	c #42211F",
" #	c #421A19",
".#	c #564D45",
"+#	c #544642",
"@#	c #483431",
"##	c #3B201A",
"$#	c #39241A",
"%#	c #3E332A",
"&#	c #423B33",
"*#	c #441D1C",
"=#	c #48312D",
"-#	c #4F453E",
";#	c #534D45",
">#	c #452723",
",#	c #452623",
"'#	c #4F413B",
")#	c #574F48",
"!#	c #4C443B",
"~#	c #3E3326",
"{#	c #483F37",
"]#	c #534741",
"^#	c #50433C",
"/#	c #50443E",
"(#	c #49312C",
"_#	c #462926",
":#	c #421D1B",
"<#	c #442622",
"[#	c #4D3F38",
"}#	c #554E46",
"|#	c #411514",
"1#	c #452A26",
"2#	c #421B1A",
"3#	c #4C3833",
"4#	c #564D46",
"5#	c #4B4138",
"6#	c #473C33",
"7#	c #4D3E37",
"8#	c #472C28",
"9#	c #44211F",
"0#	c #452522",
"a#	c #50423B",
"b#	c #53443E",
"c#	c #5B544D",
"d#	c #575049",
"e#	c #43201E",
"f#	c #51453F",
"g#	c #3E1812",
"h#	c #3B190F",
"i#	c #3B1810",
"j#	c #3E1713",
"k#	c #3F1816",
"l#	c #42322D",
"m#	c #524640",
"n#	c #554D45",
"o#	c #534A42",
"p#	c #433129",
"q#	c #442723",
"r#	c #431B1A",
"s#	c #48302C",
"t#	c #5B524C",
"u#	c #5A544C",
"v#	c #4D3C37",
"w#	c #421C1A",
"x#	c #421919",
"y#	c #382115",
"z#	c #311C05",
"A#	c #35180B",
"B#	c #331511",
"C#	c #3A312A",
"D#	c #534D44",
"E#	c #524840",
"F#	c #4E463F",
"G#	c #3B251D",
"H#	c #401A17",
"I#	c #4B3732",
"J#	c #564D47",
"K#	c #301E08",
"L#	c #2C1802",
"M#	c #241304",
"N#	c #32281E",
"O#	c #494239",
"P#	c #544D44",
"Q#	c #4C4038",
"R#	c #432522",
"S#	c #4E3E38",
"T#	c #564F48",
"U#	c #443A33",
"V#	c #391E14",
"W#	c #482E2A",
"X#	c #2E1B02",
"Y#	c #2B1901",
"Z#	c #2A1A01",
"`#	c #30210D",
" $	c #382C1E",
".$	c #40362B",
"+$	c #3A2B1E",
"@$	c #3B1C13",
"#$	c #4E4841",
"$$	c #402D28",
"%$	c #381A0E",
"&$	c #3F1915",
"*$	c #431C1A",
"=$	c #442220",
"-$	c #554C44",
";$	c #421817",
">$	c #332311",
",$	c #311D05",
"'$	c #51423D",
")$	c #4E413B",
"!$	c #463630",
"~$	c #41201D",
"{$	c #331D08",
"]$	c #382014",
"^$	c #4A3B34",
"/$	c #4E3E39",
"($	c #504841",
"_$	c #442E28",
":$	c #411A19",
"<$	c #321F0B",
"[$	c #452523",
"}$	c #413027",
"|$	c #3B2F22",
"1$	c #392C1E",
"2$	c #4F473E",
"3$	c #453831",
"4$	c #3F1B18",
"5$	c #37180C",
"6$	c #361B0D",
"7$	c #371B0C",
"8$	c #48302B",
"9$	c #51483F",
"0$	c #4F483F",
"a$	c #4F483E",
"b$	c #554E47",
"c$	c #403228",
"d$	c #411715",
"e$	c #301E05",
"f$	c #372214",
"g$	c #412620",
"h$	c #3E271F",
"i$	c #3B1D14",
"j$	c #504A41",
"k$	c #4D463D",
"l$	c #453A30",
"m$	c #361D0F",
"n$	c #39180D",
"o$	c #3D1912",
"p$	c #3C1710",
"q$	c #301D04",
"r$	c #392619",
"s$	c #48362F",
"t$	c #4E423A",
"u$	c #4C4239",
"v$	c #422B24",
"w$	c #401715",
"x$	c #534C43",
"y$	c #494036",
"z$	c #463E34",
"A$	c #32200D",
"B$	c #311B05",
"C$	c #401918",
"D$	c #3D1515",
"E$	c #361313",
"F$	c #371E0F",
"G$	c #3D2C22",
"H$	c #4B3D35",
"I$	c #4A3A33",
"J$	c #411B18",
"K$	c #554C45",
"L$	c #3E3428",
"M$	c #473E35",
"N$	c #473F35",
"O$	c #342614",
"P$	c #381E12",
"Q$	c #351513",
"R$	c #250D0D",
"S$	c #120404",
"T$	c #0C0202",
"U$	c #432822",
"V$	c #4F423C",
"W$	c #51473F",
"X$	c #432C25",
"Y$	c #401C19",
"Z$	c #401E1A",
"`$	c #472F2B",
" %	c #4F463F",
".%	c #4A443B",
"+%	c #3D3327",
"@%	c #332413",
"#%	c #36291B",
"$%	c #4A433B",
"%%	c #504940",
"&%	c #43392F",
"*%	c #352818",
"=%	c #301E07",
"-%	c #331E0D",
";%	c #2D150D",
">%	c #1A0807",
",%	c #070101",
"'%	c #000000",
")%	c #544C43",
"!%	c #534C44",
"~%	c #483C33",
"{%	c #4B3C35",
"]%	c #401917",
"^%	c #402821",
"/%	c #3D3227",
"(%	c #372B1D",
"_%	c #4C433C",
":%	c #524B42",
"<%	c #463A32",
"[%	c #3A271E",
"}%	c #29140B",
"|%	c #140603",
"1%	c #020000",
"2%	c #554B44",
"3%	c #504840",
"4%	c #4D3C35",
"5%	c #41231E",
"6%	c #3D1B14",
"7%	c #361D0D",
"8%	c #41362B",
"9%	c #4E453E",
"0%	c #2C211C",
"a%	c #0D0503",
"b%	c #010000",
"c%	c #020202",
"d%	c #0C0B09",
"e%	c #544A43",
"f%	c #574F47",
"g%	c #4B3A33",
"h%	c #432420",
"i%	c #371A0B",
"j%	c #3A2C1E",
"k%	c #4B4037",
"l%	c #423C35",
"m%	c #1E1B18",
"n%	c #030302",
"o%	c #0B0908",
"p%	c #201D1A",
"q%	c #2F2C27",
"r%	c #322F2A",
"s%	c #462724",
"t%	c #51443D",
"u%	c #58514A",
"v%	c #4C3732",
"w%	c #32210D",
"x%	c #463A31",
"y%	c #4D423A",
"z%	c #4B433D",
"A%	c #423D36",
"B%	c #2E2A25",
"C%	c #15110E",
"D%	c #030202",
"E%	c #0B0A08",
"F%	c #444039",
"G%	c #514C44",
"H%	c #524D45",
"I%	c #482D29",
"J%	c #3A180F",
"K%	c #331B07",
"L%	c #321B06",
"M%	c #371A0C",
"N%	c #3A1C11",
"O%	c #392015",
"P%	c #362219",
"Q%	c #2E1C17",
"R%	c #261311",
"S%	c #200C0B",
"T%	c #1E1411",
"U%	c #48433C",
"V%	c #4D3C36",
"W%	c #3C1810",
"X%	c #3A1412",
"Y%	c #391212",
"Z%	c #371514",
"`%	c #3A2A26",
" &	c #4B443C",
".&	c #44201E",
"+&	c #51433D",
"@&	c #58534A",
"#&	c #401717",
"                          . + @ # $ % & * = - ; > , ' ) ! ! ! ! ! ! ! ! ~ { ] ^ ",
"                            / ( _ $ : < [ - = } | ~ ! ! ! ! ! ! 1 2 ! ! ! ! 3 4 ",
"        5 6 6 5       5 . 7 8 9 0 a b c d e - ; > , ' f ! ! ! ! g h ! ! ! 1 i j ",
"k 6   l m n o p k k q r s t u v w x y z A B C D E F G H ! ! ! ! I J K ! ! 1 L M ",
"N O l P Q R S T U g V W X Y w Z `  .1 ~ ) ..+.@.#.$.%.&.K ! ! K *.=.-.1 ! ! ! ;.",
">.,.'.).!.E ~.{.' ].^./.(._.i  .1 ! ! :.:.f <.[.}.|.1.k ,.2.2.,.k 3.4.1 ! ! ! ~ ",
"! 5.6.7.8.= 9.0.a.b.c.d.e. .! ! ! ! :.f.1 g.h.i.j.5   6 k.q q k.6 l.m.! ! ! ! n.",
"! ! o.R p.q.r.s.t.u.v.3 1 ! ! ! w.:.~ g.~ ~ ~ x.y.z.6     l l     A.g ! ! ! ~ B.",
"! ! ! C.D.E.F.G.H.I.J.K >.! ! ! ! ! ~ ~ ! ! ! K.L.M.N.O.1.l       q P.! ! ! Q.R.",
"! ! ! ~ S.T.U.V.W.A.k X.P.! ! ! 1 >.:.w.! ! g.B.Y.Z.`. +.+++l   6 @+#+! ! ! $+%+",
"! ! ! ! &+B *+=+-+    7 ;+>+>.P.I ,+'+K !  .)+!+~+{+]+^+/+(+_+7 :+@+K ! ! ! <+[+",
"! ! ! ~ }+|+1+2+3+      O g 4+@+7 . k 5+6+7+8+9+0+a+b+- r.c+d+e+f+g+g ! ! ! K h+",
"! ~ i+' j+k+|+l+m+      . ;+f+.         n+o+p+q+r+F.- - - k+s+i+t+u+v+g >+K N w+",
"~ x+, y+!.z++.A+7       5 O J 5           B+C+D+E+- - - - F+}+G+H+I+J+K+;+X.L+M+",
"~ N+O+P+Q+R+S+T+k         6 U+            V+W+X+= - - - Y+Z+`+H+ @.@+@@@#@6     ",
"! $@}+%@~.&@f g J 6         *@O.=@-@l     V+W+;@= - - - 9.>@,@'@_.)@!@~@        ",
"! ! {@]@^@' ! K N J O M+1./@(@_@:@W+<@-@  -@W+[@= - - Y+p.}@|@'@1@2@3@6         ",
"~ ! 4@5@2@2 ! :.t+6@7@8@9@0@a@b@c@d@e@f@l g@h@i@- - - 9.j@k@l@m@n@o@o 6         ",
"2 ! p@q@r@w.w.s@t@u@v@w@x@y@F.z@z@A@h@B@C@:@b@z@- - = D@E@F@G@H@I@J@K@L@M@B+O.N@",
"! ! O@p@:.{ s@P@Q@R@S@T@U@D.; V@- b+W@(+g@X@r.- = q.Y@Z@`@ #^@|+C .#+#@###$#%#&#",
"! ! ~ { :.*#=#-#;#B >#$@f ,#'#)#- Y+9.!#~#{#i@]#^#Z+E /#(#_#Z+= - F+A :#p@<#[#}#",
"! |#2 :.<.1#-#b+= Z+,#~ ! 2#3#4#- - - 9.5#6#7#8#9#0#+.|+a#b#c#- d#'#e#! ! f | f#",
"g#h#i#j#k#l#;#- V@m#_#f !  #+.n#- - - Y+o#p#q#f ! ~ r#s#^#t#u#- e v#w#! ! ! x#j+",
"y#z#k A#B#C#D#- V@Q+U@$@!  #^@E#q.- - - F#G#H#! ! ! ! s@I#J#- - ; j+) ! ! ! ! {@",
"K#    L#M#N#O#A@P#Q#R#~ ! f , S#T#- - F.U#V#P.! ! ! ! f W#F+V@)#0., ~ ! ! ! ! i+",
"X#    Y#Z#`# $.$.$+$@$>+! ! 2#D.C V@b+#$$$%$;+&${@G@*$=$3#-$e B 1#;$! ! ~ f ! ! ",
"/         l 1.>$|.,$;+>+! !  #^@'$Q+)$!$~$&.{$]$^$/$R+S#E )#($_$:$~ ! ~ 4@2#! ! ",
"K+6         1.<$M+k.I >.! ! f 2#[$,#{@{@, }$|$1$2$d#9.9.d#D 3$4$2 ! ! 2 { f ! ! ",
"5$6         #@6$7$5+P.! ! ! ! ! ~ ! ! f 8$9$0$X@a$- - - - b$c$T+>+d$$@~ ! ! ! ! ",
"h L+6     e$f$g$h$i$>+! ! ! ! ! ! ! ! ~ j+9.= j$k$= - - - b+l$m$n$i#o$t+~ ~ ! 1 ",
"1 p$q M+q$r$s$t$u$v$w$! ! ! ! ! ! ! ! f j+C - x$y$;#- - - r.z$A$k.B$O e+C$D$E$'@",
"! 1 h F$G$H$8.q.D I$J$! 1 ! ! ! ! ! ! <.{.K$r.!#L$M$A@z@- F.N$O$*@  6 P$Q$R$S$T$",
"! ! 2 U$V$D z@- - W$X$Y$Z$O@! ! ! ! ! <.`$ %.%+%@%#%$%= = 9.%%&%*%=%-%;%>%,%'%'%",
"! ! $@8$)%- - - z@!%~%{%> S+2 ! >.>+2 ]%^%/%(%N@l /@_%D Y+- = :%<%[%}%|%1%'%'%'%",
"! ! f j+2%- - - = %%3%r.8.4%5@5%6%h 4+i#7%_+1.    _+8%!%Y+- - = 9%0%a%b%'%c%$ d%",
"! ! f ^@e%V@- - b+%%D - f%; Z+g%h%t+>+4+i%7 6     1.j%k%i@e - F.l%m%n%b%o%p%q%r%",
"! ! ~ s%t%e - - r.F.u%9.F+%@v%s%;$! ! ! P.I 5+k 6   w%+$x%y%z%A%B%C%D%E%% F%G%H%",
"! ! ! ) I%|+e - z@Y+e Q+^@{@) ~ ! ! ! ! ! ! >+J%K%L%J M%N%O%P%Q%R%S%T%B%U%r.- - ",
"! ! ! ! i+s#e%- - - 9.V%w#! ! ! ! ! ! ! ! ! ! >+N W%5.>+>.K <+X%Y%Z%`% &r.- - - ",
"! ! ! ! ! .&+&= @&- 9.R+ #! ! ! ! ! ! ! ! ! ! ! >+>.! ! ! ! ! 1 1 #&S@o#V@- - - "};
