/* XPM */
static char * f_00_xpm[] = {
"40 40 625 2",
"  	c #1F4A1F",
". 	c #1E4A1E",
"+ 	c #214C21",
"@ 	c #215721",
"# 	c #206F20",
"$ 	c #207520",
"% 	c #207420",
"& 	c #1F6A1F",
"* 	c #1E551E",
"= 	c #1E4C1E",
"- 	c #1E4E1E",
"; 	c #1E501E",
"> 	c #1E511E",
", 	c #1E521E",
"' 	c #1F551F",
") 	c #1F5D1F",
"! 	c #1F561F",
"~ 	c #1E4D1E",
"{ 	c #1E4B1E",
"] 	c #214D21",
"^ 	c #205220",
"/ 	c #1F4D1F",
"( 	c #1F4F1F",
"_ 	c #206420",
": 	c #1F691F",
"< 	c #1E541E",
"[ 	c #1F581F",
"} 	c #1F621F",
"| 	c #1F671F",
"1 	c #226C22",
"2 	c #276B27",
"3 	c #1F5A1F",
"4 	c #215921",
"5 	c #226122",
"6 	c #204C20",
"7 	c #235923",
"8 	c #206E20",
"9 	c #1F6C1F",
"0 	c #1F5C1F",
"a 	c #1F601F",
"b 	c #207620",
"c 	c #207820",
"d 	c #248024",
"e 	c #247E24",
"f 	c #1F5F1F",
"g 	c #1E581E",
"h 	c #206B20",
"i 	c #227C22",
"j 	c #2B522B",
"k 	c #215F21",
"l 	c #207220",
"m 	c #207120",
"n 	c #1F6B1F",
"o 	c #207320",
"p 	c #227720",
"q 	c #297B21",
"r 	c #327522",
"s 	c #366922",
"t 	c #375E21",
"u 	c #375922",
"v 	c #315421",
"w 	c #25501F",
"x 	c #1F501E",
"y 	c #1E571E",
"z 	c #1F701F",
"A 	c #1F721F",
"B 	c #217B21",
"C 	c #2C502C",
"D 	c #254F25",
"E 	c #207A20",
"F 	c #247620",
"G 	c #307A22",
"H 	c #478326",
"I 	c #4F8728",
"J 	c #67932E",
"K 	c #81A635",
"L 	c #91B03A",
"M 	c #97B03C",
"N 	c #93A73A",
"O 	c #819334",
"P 	c #5D752A",
"Q 	c #365921",
"R 	c #1F4E1E",
"S 	c #1E4F1E",
"T 	c #1F751F",
"U 	c #219321",
"V 	c #207020",
"W 	c #1E531E",
"X 	c #285228",
"Y 	c #2A512A",
"Z 	c #1F681F",
"` 	c #1F6E1F",
" .	c #219221",
"..	c #237E20",
"+.	c #327A22",
"@.	c #65932D",
"#.	c #90AF3A",
"$.	c #A9C342",
"%.	c #ADC643",
"&.	c #B9D047",
"*.	c #CEE24F",
"=.	c #DAEC53",
"-.	c #DDEF54",
";.	c #DBED53",
">.	c #CDDC4E",
",.	c #A1B23F",
"'.	c #63792C",
").	c #2F5321",
"!.	c #224D1E",
"~.	c #1F4C1E",
"{.	c #219821",
"].	c #207E20",
"^.	c #236A23",
"/.	c #286628",
"(.	c #1F591F",
"_.	c #1E561E",
":.	c #1F5E1F",
"<.	c #1F5B1F",
"[.	c #23A622",
"}.	c #2BBB25",
"|.	c #56962A",
"1.	c #8DAD39",
"2.	c #C0D64A",
"3.	c #DCEE54",
"4.	c #E8F858",
"5.	c #E6F657",
"6.	c #E6F758",
"7.	c #EDFD5A",
"8.	c #EEFE5A",
"9.	c #EFFE5B",
"0.	c #ECFC5A",
"a.	c #DAEA53",
"b.	c #AEBE43",
"c.	c #7E9134",
"d.	c #556E28",
"e.	c #315521",
"f.	c #205D1E",
"g.	c #219B21",
"h.	c #219521",
"i.	c #1F611F",
"j.	c #229921",
"k.	c #33D427",
"l.	c #5FCE2E",
"m.	c #A6C841",
"n.	c #D8EA52",
"o.	c #ECFC59",
"p.	c #F0FF5B",
"q.	c #EFFF5B",
"r.	c #ECFD5A",
"s.	c #E3F356",
"t.	c #D0DF4F",
"u.	c #ABBB42",
"v.	c #768931",
"w.	c #3F6223",
"x.	c #248F21",
"y.	c #23B723",
"z.	c #219421",
"A.	c #29C825",
"B.	c #63E430",
"C.	c #ACE844",
"D.	c #E0F455",
"E.	c #E3F256",
"F.	c #C1D14A",
"G.	c #829535",
"H.	c #3F7724",
"I.	c #24BB23",
"J.	c #24C624",
"K.	c #229222",
"L.	c #206C20",
"M.	c #24C424",
"N.	c #38DE28",
"O.	c #96EC3E",
"P.	c #DCF854",
"Q.	c #E7F758",
"R.	c #BFCF49",
"S.	c #6F882F",
"T.	c #2AA723",
"U.	c #27D427",
"V.	c #2C9F2C",
"W.	c #218B21",
"X.	c #23AB23",
"Y.	c #25BE24",
"Z.	c #55D42D",
"`.	c #BCF14A",
" +	c #ECFE5A",
".+	c #EDFC5A",
"++	c #ECFB59",
"@+	c #EEFE5B",
"#+	c #DFEF55",
"$+	c #98AB3C",
"%+	c #38A025",
"&+	c #30C330",
"*+	c #247A24",
"=+	c #1F661F",
"-+	c #207920",
";+	c #207C20",
">+	c #288421",
",+	c #75B432",
"'+	c #D7F353",
")+	c #E9F959",
"!+	c #C5DB4C",
"~+	c #BCD349",
"{+	c #C7DB4C",
"]+	c #DBEE54",
"^+	c #EAFB5A",
"/+	c #AEC143",
"(+	c #45A428",
"_+	c #259725",
":+	c #357B23",
"<+	c #98B83D",
"[+	c #E8FA58",
"}+	c #DDEE55",
"|+	c #B6CE47",
"1+	c #84A736",
"2+	c #568A2A",
"3+	c #458426",
"4+	c #57902A",
"5+	c #90B73A",
"6+	c #CCE34E",
"7+	c #E9FA59",
"8+	c #C3DD4B",
"9+	c #639F2D",
"0+	c #225C1E",
"a+	c #418025",
"b+	c #B8D047",
"c+	c #D5E852",
"d+	c #9AB73D",
"e+	c #508728",
"f+	c #297721",
"g+	c #217620",
"h+	c #228C21",
"i+	c #349A24",
"j+	c #84B737",
"k+	c #D3EB51",
"l+	c #EEFF5B",
"m+	c #DCF254",
"n+	c #8CA538",
"o+	c #2E5320",
"p+	c #207B20",
"q+	c #4E8628",
"r+	c #CFE24F",
"s+	c #E1F156",
"t+	c #9EBA3F",
"u+	c #3D7E24",
"v+	c #217520",
"w+	c #218521",
"x+	c #229C22",
"y+	c #23A923",
"z+	c #41A426",
"A+	c #ADD044",
"B+	c #E5F857",
"C+	c #ABBC42",
"D+	c #425F24",
"E+	c #1E5B1E",
"F+	c #208320",
"G+	c #618F2C",
"H+	c #DCED54",
"I+	c #5E8E2C",
"J+	c #217420",
"K+	c #218221",
"L+	c #2A9D23",
"M+	c #87B438",
"N+	c #D8ED53",
"O+	c #EBFB59",
"P+	c #B3C345",
"Q+	c #415F23",
"R+	c #1F631F",
"S+	c #1F641F",
"T+	c #207D20",
"U+	c #23B123",
"V+	c #229822",
"W+	c #217920",
"X+	c #6CA12F",
"Y+	c #E2F256",
"Z+	c #EAFA58",
"`+	c #B0C845",
" @	c #397C23",
".@	c #218621",
"+@	c #219621",
"@@	c #258D22",
"#@	c #6D9F30",
"$@	c #CFE34F",
"%@	c #E8F958",
"&@	c #B3C545",
"*@	c #208020",
"=@	c #22AA22",
"-@	c #219A21",
";@	c #207720",
">@	c #29A223",
",@	c #80B536",
"'@	c #E6F557",
")@	c #EBFB5A",
"!@	c #B5CD46",
"~@	c #407F25",
"{@	c #1F571F",
"]@	c #237B20",
"^@	c #62932E",
"/@	c #C6DB4C",
"(@	c #B3CD46",
"_@	c #417224",
":@	c #1E5A1E",
"<@	c #208620",
"[@	c #35B025",
"}@	c #94B93B",
"|@	c #BED349",
"1@	c #4C8427",
"2@	c #227220",
"3@	c #5D8D2B",
"4@	c #BDD349",
"5@	c #EFFE5A",
"6@	c #B6D747",
"7@	c #439026",
"8@	c #377E23",
"9@	c #9FB93E",
"0@	c #EBFA59",
"a@	c #C5DA4C",
"b@	c #588B2A",
"c@	c #216C20",
"d@	c #226F20",
"e@	c #4A8227",
"f@	c #A8C242",
"g@	c #E4F456",
"h@	c #BBD948",
"i@	c #468E27",
"j@	c #375C22",
"k@	c #A3B940",
"l@	c #C3D84B",
"m@	c #578B2A",
"n@	c #217120",
"o@	c #217D20",
"p@	c #328023",
"q@	c #86AA37",
"r@	c #D8EB53",
"s@	c #EDFD5B",
"t@	c #C0D84A",
"u@	c #498527",
"v@	c #206D20",
"w@	c #1F651F",
"x@	c #1F521F",
"y@	c #375822",
"z@	c #A3B740",
"A@	c #B7CE47",
"B@	c #4C8928",
"C@	c #218220",
"D@	c #208120",
"E@	c #1E6E1E",
"F@	c #1F771F",
"G@	c #218D21",
"H@	c #268D22",
"I@	c #6A9A2F",
"J@	c #CCE04E",
"K@	c #EEFD5A",
"L@	c #4D8128",
"M@	c #1E5C1E",
"N@	c #247124",
"O@	c #206920",
"P@	c #236B23",
"Q@	c #206120",
"R@	c #A4B740",
"S@	c #A4C041",
"T@	c #3B8B25",
"U@	c #219C21",
"V@	c #22A922",
"W@	c #22A722",
"X@	c #219D21",
"Y@	c #22A022",
"Z@	c #22AC22",
"`@	c #23AF23",
" #	c #23AD23",
".#	c #249B22",
"+#	c #5B952C",
"@#	c #C0D74A",
"##	c #EAFA59",
"$#	c #C7DC4C",
"%#	c #4E8228",
"&#	c #297729",
"*#	c #217221",
"=#	c #217321",
"-#	c #375F22",
";#	c #A2B840",
">#	c #EBFC59",
",#	c #DEEF55",
"'#	c #94B43B",
")#	c #309323",
"!#	c #23AA22",
"~#	c #23B023",
"{#	c #23AE23",
"]#	c #249C22",
"^#	c #509028",
"/#	c #B7CF47",
"(#	c #C8DC4D",
"_#	c #4E7D27",
":#	c #387323",
"<#	c #A4C541",
"[#	c #EAFC59",
"}#	c #E2F356",
"|#	c #9EBD3F",
"1#	c #369624",
"2#	c #23AC23",
"3#	c #229221",
"4#	c #488727",
"5#	c #B5CE47",
"6#	c #C7D94C",
"7#	c #4E7127",
"8#	c #217821",
"9#	c #3B8324",
"0#	c #A7CE42",
"a#	c #ACC642",
"b#	c #3D9325",
"c#	c #22A622",
"d#	c #239A22",
"e#	c #6C972F",
"f#	c #C8DD4D",
"g#	c #C4D44B",
"h#	c #4C6826",
"i#	c #1F531F",
"j#	c #277C27",
"k#	c #288A28",
"l#	c #418425",
"m#	c #A9D043",
"n#	c #E9FA58",
"o#	c #B8D048",
"p#	c #468C27",
"q#	c #22A122",
"r#	c #22A422",
"s#	c #22A222",
"t#	c #229621",
"u#	c #218420",
"v#	c #3B8024",
"w#	c #94B33B",
"x#	c #BDD049",
"y#	c #467126",
"z#	c #296629",
"A#	c #227322",
"B#	c #296D29",
"C#	c #298529",
"D#	c #218321",
"E#	c #3B9625",
"F#	c #9CD53F",
"G#	c #E4F857",
"H#	c #61912C",
"I#	c #227D20",
"J#	c #208820",
"K#	c #229F22",
"L#	c #22A322",
"M#	c #229421",
"N#	c #228120",
"O#	c #4A8427",
"P#	c #ACC543",
"Q#	c #EBFD59",
"R#	c #AFDB45",
"S#	c #449C2E",
"T#	c #379537",
"U#	c #205620",
"V#	c #206A20",
"W#	c #218C21",
"X#	c #229E22",
"Y#	c #2DC225",
"Z#	c #7CDD36",
"`#	c #D1F350",
" $	c #86A937",
".$	c #2D7821",
"+$	c #218E21",
"@$	c #22A522",
"#$	c #4B8527",
"$$	c #B6CD47",
"%$	c #E6FC57",
"&$	c #9AE440",
"*$	c #46BC39",
"=$	c #27B327",
"-$	c #1F501F",
";$	c #237823",
">$	c #26B026",
",$	c #25D025",
"'$	c #28DA26",
")$	c #57DF2E",
"!$	c #B8EE49",
"~$	c #E5F557",
"{$	c #ADC644",
"]$	c #4A8327",
"^$	c #238120",
"/$	c #64922D",
"($	c #C6DA4C",
"_$	c #D9F953",
":$	c #81DE3C",
"<$	c #32D12A",
"[$	c #234C23",
"}$	c #245524",
"|$	c #238123",
"1$	c #24B224",
"2$	c #3BC127",
"3$	c #9BCF3E",
"4$	c #81A535",
"5$	c #337B23",
"6$	c #227C20",
"7$	c #238421",
"8$	c #218721",
"9$	c #218120",
"0$	c #95B43C",
"a$	c #DBED54",
"b$	c #CBF64F",
"c$	c #71E434",
"d$	c #30E027",
"e$	c #25D125",
"f$	c #22A822",
"g$	c #1F711F",
"h$	c #204A20",
"i$	c #229B22",
"j$	c #287020",
"k$	c #738F31",
"l$	c #CBDB4E",
"m$	c #E5F657",
"n$	c #BFD54A",
"o$	c #7FA335",
"p$	c #4F8628",
"q$	c #3A7D24",
"r$	c #327C23",
"s$	c #397F24",
"t$	c #8CAD39",
"u$	c #CADF4E",
"v$	c #E9FD59",
"w$	c #B6F248",
"x$	c #64E631",
"y$	c #2FE327",
"z$	c #25DA25",
"A$	c #22B322",
"B$	c #204D1E",
"C$	c #496425",
"D$	c #A3B440",
"E$	c #E0F055",
"F$	c #B0C844",
"G$	c #88AA37",
"H$	c #96B43C",
"I$	c #B2CA45",
"J$	c #D3E751",
"K$	c #E8F959",
"L$	c #D8F953",
"M$	c #8EEC3B",
"N$	c #4DE42C",
"O$	c #29E226",
"P$	c #26DD26",
"Q$	c #1F541F",
"R$	c #1F4B1F",
"S$	c #1F6F1F",
"T$	c #2D5220",
"U$	c #758A31",
"V$	c #BCCC48",
"W$	c #E2F156",
"X$	c #EAF959",
"Y$	c #D7EA52",
"Z$	c #E9FB58",
"`$	c #B5F047",
" %	c #5DDF2F",
".%	c #33D627",
"+%	c #26D825",
"@%	c #26D126",
"#%	c #249124",
"$%	c #208920",
"%%	c #4D6826",
"&%	c #7E9133",
"*%	c #AFC044",
"=%	c #D2E150",
"-%	c #E8F758",
";%	c #C6E64D",
">%	c #82D838",
",%	c #32BA24",
"'%	c #23A222",
")%	c #23A723",
"!%	c #1F4B1E",
"~%	c #2B5120",
"{%	c #415E24",
"]%	c #728630",
"^%	c #9CAD3D",
"/%	c #C3D34B",
"(%	c #DAEA52",
"_%	c #E4F557",
":%	c #B8D147",
"<%	c #7EBC38",
"[%	c #4AB02A",
"}%	c #248B21",
"|%	c #3C5B23",
"1%	c #5B732A",
"2%	c #8A9C37",
"3%	c #B8C846",
"4%	c #DDEC53",
"5%	c #E9F858",
"6%	c #E1F155",
"7%	c #E7F858",
"8%	c #E1F256",
"9%	c #6FA833",
"0%	c #349926",
"a%	c #248C21",
"b%	c #23B323",
"c%	c #1F4C1F",
"d%	c #204C1E",
"e%	c #28501F",
"f%	c #526C27",
"g%	c #7B8F32",
"h%	c #A0B13F",
"i%	c #B6C647",
"j%	c #C9D94D",
"k%	c #CADA4D",
"l%	c #B1C244",
"m%	c #9CB23E",
"n%	c #A9C242",
"o%	c #BBD249",
"p%	c #9CB93D",
"q%	c #6B9A2F",
"r%	c #3D5C23",
"s%	c #536C28",
"t%	c #5E752B",
"u%	c #6C812E",
"v%	c #6C802E",
"w%	c #546C27",
"x%	c #3C6022",
"y%	c #3D7223",
"z%	c #4A8326",
"A%	c #458226",
"B%	c #387C23",
"C%	c #287721",
"D%	c #254E1F",
"E%	c #254E1E",
"F%	c #29501F",
"G%	c #1F4D1E",
"H%	c #1F511F",
"  . . . + @ # $ $ $ % & * = = - ; > , ' ) ! ~ { { { { { { { { { { { { ] ^ / { = ",
". . . . ( _ % $ $ $ % : < ; [ } | & 1 2 3 = { { { { { { { { { { = , 4 5 ^ { { { ",
". . . 6 7 8 $ $ $ $ % 9 0 a # % b c d e f - { { { { { { { { { ~ g h i 8 - { { { ",
". .   j k l $ $ $ $ $ m n o b $ $ $ p q r s t u v w x = { { y z A b B & > { { { ",
"{ . C D ) m $ $ $ $ $ % $ E $ F G H I J K L M N O P Q R { S T U E $ $ V 0 = { { ",
"W X Y { * Z l o # ` V b  ...+.@.#.$.%.&.*.=.-.;.>.,.'.).!.~.n {.].$ $ % : * = { ",
"^./.(.; - _.:.a <.3 & [.}.|.1.2.3.4.5.6.7.8.9.9.0.a.b.c.d.e.f.g.h.c $ $ m i.S { ",
"% o n 3 ~ { = ~ = a j.k.l.m.n.o.9.p.q.9.q.p.q.q.q.r.s.t.u.v.w.x.y.z.c % l | , { ",
"$ $ o } S . . { f U A.B.C.D.8.p.p.p.p.p.p.p.p.p.p.q.9.7.E.F.G.H.I.J.K.L.i.0 , = ",
"$ $ m a - . ~ } h.M.N.O.P.9.p.p.p.p.p.p.p.p.p.p.q.q.q.q.9.Q.R.S.T.U.V.) ~ = = { ",
"l V | _.{ ; | W.X.Y.Z.`. +p.p.p.p.p.p.9..+++.+@+q.q.q.q.q.9.#+$+%+&+*+= { { { { ",
"Z :.* ~ ; =+-+-+;+>+,+'+q.p.p.p.p.9.)+=.!+~+{+]+^+q.q.q.p.q.4./+(+_+[ { { { { { ",
"a ; { { } $ $ $ $ :+<+[+p.p.p.p.0.}+|+1+2+3+4+5+6+7+q.q.p.q.++8+9+0+= { { { { { ",
"[ ~ . < % $ $ $ $ a+b+8.p.p.p.@+c+d+e+f+g+].h+i+j+k+l+q.p.p.q.m+n+o+{ { { { { { ",
"S { = | p+$ $ $ $ q+r+q.p.p.p.s+t+u+v+% b w+x+y+z+A+B+q.p.p.p.7+C+D+{ { ~ _.; = ",
". { E+W.F+$ $ $ $ G+H+q.p.p.7.!+I+J+l # 8 K+x+y+L+M+N+7.q.p.p.O+P+Q+{ { , R+S+Z ",
"{ * T+U+V+$ % $ W+X+Y+p.p.p.Z+`+ @l =+[ * & .@+@@@#@$@%@q.p.p.O+&@Q+{ - ) V V -+",
"~ y *@=@-@;@# T+>@,@'@p.p.p.)@!@~@# {@= = , } c ]@^@/@Q.9.p.p.O+(@_@g ) n # Z | ",
"{ = :@Z R+(.} <@[@}@)+p.p.p..+|@1@L.; = = = - :.2@3@4@%@5@p.p.o.6@7@9 # m n ) _.",
"{ { = = = { = y 8@9@0@p.p.p..+a@b@c@; = = = ~ y d@e@f@g@8.p.p.0.h@i@l % o n ) _.",
"S { { { { { { { j@k@O+p.p.p..+l@m@n@{@> - W i.V o@p@q@r@s@p.p.7.t@u@& v@m # Z w@",
"0 * * x@- = { { y@z@o.p.p.p.)+A@B@C@D@E E@F@G@x+x+H@I@J@O+p.p.K@a@L@M@g i.h V N@",
"& O@P@Q@, ~ ~ = u R@0.p.p.9.s.S@T@U@V@W@X@Y@Z@`@ #.#+#@###p.p.K@$#%#) S S :.# &#",
"o *#=#8 a ) ) (.-#;#>#p.p.8.,#'#)#!#U+~#`@`@U+U+{#]#^#/#)+p.p.8.(#_#g ~ { < n % ",
"$ $ $ % m l m 8 :#<#[#p.p.9.}#|#1#2#U+U+U+U+U+~#!#3#4#5#%@p.p.K@6#7#; = ~ <.8 $ ",
"$ $ b 8#b $ $ b 9#0#7+p.p.p.4.a#b#c#`@~#~#~#{#y+d#>+e#f#r.p.p.K@g#h#~ i#0 : l $ ",
"$ o j#k#E $ $ b l#m#n#p.p.p.++o#p#3#q#r#c#W@s#t#u#v#w#-.9.p.p.7.x#y#z#A#m o $ $ ",
"8 w@B#C#D#p+-+*@E#F#G#q.p.p..+{+H#I#F+J#U K#L#M#N#O#P#)+q.p.p.Q#R#S#T#D#b $ % l ",
"3 > / U#V#W#X#{#Y#Z#`#8.p.p.5@n. $.$b p++$@$ #X#w+#$$$O+p.p.q.%$&$*$=$W.;@;@o =+",
"6 . . . -$;$>$,$'$)$!$Q#p.p.p.~${$]$g+c .@V+Y@ .^$/$($0.p.p.q._$:$<$J.{.c n 3 ( ",
"[$. . . . }$|$1$J.2$3$g@q.p.p..+r+4$5$p 6$7$8$9$v#0$a$9.p.q.8.b$c$d$e$f$g$, { { ",
"h$. . . . / z f$i$j$k$l$.+q.p.q.m$n$o$p$q$r$s$e+t$u$O+p.p.q.v$w$x$y$z$A$S+{ { { ",
". . . . . _.U q#a B$C$D$E$5@q.q.K@m$r+F$0$G$H$I$J$K$p.p.p.5@L$M$N$O$P$V@Q${ { { ",
"{ R$. . = S$ #*@- { T$U$V$W$X$8.q.l+.+m$3.Y$]+~$r.p.p.p.q.Z$`$ %.%+%@%#%( { { { ",
"{ 6   . > $%c#f { { !.%%&%*%=%-%)+5@p.p.9.K@@+q.p.p.p.8.4.;%>%,%'%y+)%` = { { { ",
"{ R${ _.A i$<@- { { !%~%{%]%^%/%(%.+q.p.p.q.5@q.p.p.q._%:%<%[%}%-+E $ W { { { { ",
"{ { - E  #X.} { { { { !%!.|%1%2%3%4%Q.K@8.5%6%7%7.0.8%/#9%0%a%E $ o } ~ { { { R$",
"{ { ~ -+b%{.; { { { { c%= d%e%f%g%h%i%j%k%l%m%n%o%A@p%q%v#g+b b $ $ & < { { { { ",
"{ { { W $ g$= { { { = = { { !%~%r%s%t%u%v%w%x%y%z%A%B%C%v+$ $ $ $ $ o =+, { { { ",
"{ { { { - W = { { { { { { { { !%d%D%E%F%F%!.G%a % $ $ $ $ $ $ $ $ $ $ o w@H%{ { "};
