/* XPM */
static char * f_01_xpm[] = {
"40 40 570 2",
"  	c #1F4A1F",
". 	c #1E4A1E",
"+ 	c #214C21",
"@ 	c #215721",
"# 	c #206F20",
"$ 	c #207520",
"% 	c #207420",
"& 	c #1F6A1F",
"* 	c #1E551E",
"= 	c #1E4C1E",
"- 	c #1E4E1E",
"; 	c #1E501E",
"> 	c #1E511E",
", 	c #1E521E",
"' 	c #1F551F",
") 	c #1F5D1F",
"! 	c #1F561F",
"~ 	c #1E4D1E",
"{ 	c #1E4B1E",
"] 	c #214D21",
"^ 	c #205220",
"/ 	c #1F4D1F",
"( 	c #1F4F1F",
"_ 	c #206420",
": 	c #1F691F",
"< 	c #1E541E",
"[ 	c #1F581F",
"} 	c #1F611F",
"| 	c #1F651F",
"1 	c #1F681F",
"2 	c #226A22",
"3 	c #276B27",
"4 	c #1F5C1F",
"5 	c #215921",
"6 	c #226122",
"7 	c #204C20",
"8 	c #235923",
"9 	c #206E20",
"0 	c #207320",
"a 	c #1F5B1F",
"b 	c #206720",
"c 	c #206B20",
"d 	c #206820",
"e 	c #1F661F",
"f 	c #226E22",
"g 	c #227722",
"h 	c #207120",
"i 	c #1F541F",
"j 	c #1F4B1F",
"k 	c #1F4C1F",
"l 	c #1E581E",
"m 	c #227C22",
"n 	c #2B522B",
"o 	c #215F21",
"p 	c #207220",
"q 	c #206C20",
"r 	c #1F521F",
"s 	c #1F601F",
"t 	c #1F511F",
"u 	c #205D1F",
"v 	c #227321",
"w 	c #216520",
"x 	c #1F531F",
"y 	c #1E571E",
"z 	c #1F701F",
"A 	c #1F721F",
"B 	c #207620",
"C 	c #217B21",
"D 	c #2C502C",
"E 	c #254F25",
"F 	c #205B20",
"G 	c #1F4E1F",
"H 	c #205F20",
"I 	c #216120",
"J 	c #1F5E1F",
"K 	c #218A21",
"L 	c #207920",
"M 	c #207020",
"N 	c #1E531E",
"O 	c #285228",
"P 	c #2A512A",
"Q 	c #206A20",
"R 	c #215C20",
"S 	c #247320",
"T 	c #20581F",
"U 	c #207720",
"V 	c #207A20",
"W 	c #236A23",
"X 	c #286628",
"Y 	c #1F591F",
"Z 	c #1E561E",
"` 	c #225720",
" .	c #347D23",
"..	c #419A26",
"+.	c #398A24",
"@.	c #287221",
"#.	c #216220",
"$.	c #206020",
"%.	c #208920",
"&.	c #207820",
"*.	c #1E4F1E",
"=.	c #1F6B1F",
"-.	c #1F5A1F",
";.	c #1F571F",
">.	c #275C20",
",.	c #397924",
"'.	c #419126",
").	c #48A628",
"!.	c #3BAC26",
"~.	c #45A727",
"{.	c #3D9225",
"].	c #267F21",
"^.	c #216E20",
"/.	c #229B22",
"(.	c #219421",
"_.	c #1F671F",
":.	c #237120",
"<.	c #267021",
"[.	c #2E7122",
"}.	c #469027",
"|.	c #49A828",
"1.	c #32B025",
"2.	c #34B426",
"3.	c #28AF24",
"4.	c #319D23",
"5.	c #2A8222",
"6.	c #217B20",
"7.	c #1F641F",
"8.	c #206920",
"9.	c #22A322",
"0.	c #24C124",
"a.	c #229222",
"b.	c #215920",
"c.	c #308D23",
"d.	c #269F23",
"e.	c #29A123",
"f.	c #32AB24",
"g.	c #34B225",
"h.	c #37B525",
"i.	c #33B425",
"j.	c #38B126",
"k.	c #3F9F26",
"l.	c #2C8022",
"m.	c #217E20",
"n.	c #217520",
"o.	c #1F501F",
"p.	c #217F21",
"q.	c #24A923",
"r.	c #25C525",
"s.	c #2BA02B",
"t.	c #276221",
"u.	c #309123",
"v.	c #26AA23",
"w.	c #27B124",
"x.	c #2AB324",
"y.	c #38B526",
"z.	c #59BB2C",
"A.	c #5EBD2D",
"B.	c #64BD30",
"C.	c #4FAC29",
"D.	c #3E9626",
"E.	c #2F8422",
"F.	c #278922",
"G.	c #228021",
"H.	c #1F5F1F",
"I.	c #24AF23",
"J.	c #28B628",
"K.	c #248524",
"L.	c #1F621F",
"M.	c #215420",
"N.	c #247420",
"O.	c #2B9D22",
"P.	c #43B328",
"Q.	c #5DBC2D",
"R.	c #7CC736",
"S.	c #A0D540",
"T.	c #ADD944",
"U.	c #A6D742",
"V.	c #87C638",
"W.	c #6FB831",
"X.	c #45A027",
"Y.	c #238A21",
"Z.	c #217920",
"`.	c #217620",
" +	c #22A022",
".+	c #23AB23",
"++	c #229D22",
"@+	c #217521",
"#+	c #1F6D1F",
"$+	c #308A23",
"%+	c #7ABD35",
"&+	c #AED945",
"*+	c #CAE94F",
"=+	c #DBF355",
"-+	c #E0F555",
";+	c #D9F153",
">+	c #CAE94E",
",+	c #64B32E",
"'+	c #278B22",
")+	c #217720",
"!+	c #217C21",
"~+	c #229322",
"{+	c #23AA23",
"]+	c #208120",
"^+	c #218921",
"/+	c #228E22",
"(+	c #217E21",
"_+	c #215A1F",
":+	c #508F29",
"<+	c #ACD044",
"[+	c #DFF355",
"}+	c #EDFD5A",
"|+	c #EFFF5B",
"1+	c #EEFF5B",
"2+	c #E9FA59",
"3+	c #D8F153",
"4+	c #A4D241",
"5+	c #58A02B",
"6+	c #277C21",
"7+	c #229021",
"8+	c #23A923",
"9+	c #219221",
"0+	c #207B20",
"a+	c #218121",
"b+	c #229422",
"c+	c #23A823",
"d+	c #24B724",
"e+	c #24BC24",
"f+	c #228C22",
"g+	c #347F23",
"h+	c #88B639",
"i+	c #D5EA51",
"j+	c #EDFC5A",
"k+	c #F0FF5B",
"l+	c #EFFE5B",
"m+	c #ECFD5A",
"n+	c #DAF154",
"o+	c #A4CC42",
"p+	c #419225",
"q+	c #218621",
"r+	c #208220",
"s+	c #228C21",
"t+	c #229922",
"u+	c #218D21",
"v+	c #1E5B1E",
"w+	c #218B21",
"x+	c #208320",
"y+	c #229E22",
"z+	c #24BA24",
"A+	c #25C925",
"B+	c #26CD26",
"C+	c #26CE26",
"D+	c #25C425",
"E+	c #26A523",
"F+	c #6DAC30",
"G+	c #C7E04C",
"H+	c #EBFB5A",
"I+	c #EFFE5A",
"J+	c #EAFA59",
"K+	c #EEFD5A",
"L+	c #D3EE51",
"M+	c #72BB31",
"N+	c #2AAF24",
"O+	c #24B024",
"P+	c #23A623",
"Q+	c #217D20",
"R+	c #1F631F",
"S+	c #207D20",
"T+	c #23B123",
"U+	c #229822",
"V+	c #229C22",
"W+	c #24BB24",
"X+	c #26CC26",
"Y+	c #26CF26",
"Z+	c #26C926",
"`+	c #3CB327",
" @	c #A9D142",
".@	c #E4F757",
"+@	c #EBFA59",
"@@	c #D6E651",
"#@	c #E6F557",
"$@	c #DEF656",
"%@	c #93D93D",
"&@	c #3ECB29",
"*@	c #28CB26",
"=@	c #25C325",
"-@	c #23A323",
";@	c #208620",
">@	c #208020",
",@	c #22AA22",
"'@	c #219F21",
")@	c #25CA25",
"!@	c #28C626",
"~@	c #71C333",
"{@	c #D1EB52",
"]@	c #E2F155",
"^@	c #AEBE43",
"/@	c #D4E451",
"(@	c #EEFE5B",
"_@	c #E1F956",
":@	c #A3E442",
"<@	c #48D12B",
"[@	c #28CF26",
"}@	c #218221",
"|@	c #229121",
"1@	c #1E5A1E",
"2@	c #23AF23",
"3@	c #26CB26",
"4@	c #28C926",
"5@	c #84CB38",
"6@	c #E3F657",
"7@	c #CEDE4F",
"8@	c #809334",
"9@	c #BECE49",
"0@	c #EAF959",
"a@	c #EEFE5A",
"b@	c #E5FA58",
"c@	c #B8EB48",
"d@	c #5FD430",
"e@	c #2ACF27",
"f@	c #25C125",
"g@	c #218F21",
"h@	c #239A22",
"i@	c #219B21",
"j@	c #24B924",
"k@	c #27CC26",
"l@	c #7DCC37",
"m@	c #E5F858",
"n@	c #B7C747",
"o@	c #62792B",
"p@	c #A7B641",
"q@	c #E4F357",
"r@	c #EBFC59",
"s@	c #CBF14D",
"t@	c #78DA35",
"u@	c #2FCF27",
"v@	c #229522",
"w@	c #207C20",
"x@	c #1F6F1F",
"y@	c #24B524",
"z@	c #7DCB37",
"A@	c #E4F858",
"B@	c #E0EF55",
"C@	c #9DAE3E",
"D@	c #516C26",
"E@	c #8FA238",
"F@	c #D7E852",
"G@	c #D8F652",
"H@	c #8FDE3D",
"I@	c #35CF28",
"J@	c #219521",
"K@	c #217C20",
"L@	c #1E5F1E",
"M@	c #22A122",
"N@	c #26CA26",
"O@	c #27C925",
"P@	c #92CE3C",
"Q@	c #E8FA59",
"R@	c #E8F858",
"S@	c #C4DB4B",
"T@	c #77A032",
"U@	c #407A22",
"V@	c #789F32",
"W@	c #CDE44E",
"X@	c #ECFC5A",
"Y@	c #DEF655",
"Z@	c #97DD3F",
"`@	c #37CD28",
" #	c #239D23",
".#	c #208C20",
"+#	c #247124",
"@#	c #236B23",
"##	c #206120",
"$#	c #28C525",
"%#	c #A4D543",
"&#	c #EAFB59",
"*#	c #E4F657",
"=#	c #C0E14A",
"-#	c #82C236",
";#	c #51A729",
">#	c #69B12F",
",#	c #C6E54C",
"'#	c #ECFC59",
")#	c #E0F456",
"!#	c #94D03D",
"~#	c #33C427",
"{#	c #25CB25",
"]#	c #25C625",
"^#	c #23AD23",
"/#	c #297729",
"(#	c #217221",
"_#	c #217321",
":#	c #25CC25",
"<#	c #2ABF24",
"[#	c #B5DD47",
"}#	c #E9FB59",
"|#	c #B9E048",
"1#	c #79C334",
"2#	c #5AB92D",
"3#	c #BAE148",
"4#	c #E8FA58",
"5#	c #EEFD5B",
"6#	c #DDF055",
"7#	c #81C037",
"8#	c #28BF25",
"9#	c #218E21",
"0#	c #219021",
"a#	c #35BD26",
"b#	c #C2E54C",
"c#	c #DAF253",
"d#	c #96D03D",
"e#	c #63BE30",
"f#	c #B7DF47",
"g#	c #E2F457",
"h#	c #95CB3C",
"i#	c #2EC125",
"j#	c #25BE25",
"k#	c #239223",
"l#	c #1E5C1E",
"m#	c #217821",
"n#	c #24C224",
"o#	c #43C229",
"p#	c #C6EB4D",
"q#	c #E9FB58",
"r#	c #D6F052",
"s#	c #67BE2F",
"t#	c #B4DC46",
"u#	c #4AC42A",
"v#	c #24B424",
"w#	c #218821",
"x#	c #277C27",
"y#	c #288928",
"z#	c #207F20",
"A#	c #23B023",
"B#	c #43CA29",
"C#	c #BAE949",
"D#	c #E7FB57",
"E#	c #EDFE5A",
"F#	c #B9DC48",
"G#	c #74BB33",
"H#	c #6CB830",
"I#	c #BBDD48",
"J#	c #E8F958",
"K#	c #CBEA4F",
"L#	c #71C933",
"M#	c #2ABC25",
"N#	c #24B224",
"O#	c #296D29",
"P#	c #298429",
"Q#	c #217921",
"R#	c #22A222",
"S#	c #26C125",
"T#	c #57C72D",
"U#	c #BEE84A",
"V#	c #E5F657",
"W#	c #B5D246",
"X#	c #6AA92F",
"Y#	c #6FB331",
"Z#	c #B5D946",
"`#	c #E3F556",
" $	c #BCE24A",
".$	c #5DB62D",
"+$	c #24A223",
"@$	c #229521",
"#$	c #205620",
"$$	c #206320",
"%$	c #50BD2B",
"&$	c #B3E046",
"*$	c #E7F957",
"=$	c #DCEE54",
"-$	c #BBD748",
";$	c #BADD49",
">$	c #D7EF52",
",$	c #EBFB59",
"'$	c #E4F957",
")$	c #A4D140",
"!$	c #409626",
"~$	c #217320",
"{$	c #217D21",
"]$	c #207E20",
"^$	c #216521",
"/$	c #205A20",
"($	c #23AE23",
"_$	c #88CB38",
":$	c #D0ED50",
"<$	c #E9F959",
"[$	c #D1EB50",
"}$	c #81BD36",
"|$	c #2B7E22",
"1$	c #1F6C1F",
"2$	c #234C23",
"3$	c #235223",
"4$	c #205E20",
"5$	c #25AF23",
"6$	c #46B728",
"7$	c #D1ED50",
"8$	c #E7F958",
"9$	c #DEF455",
"0$	c #ADD844",
"a$	c #58AD2B",
"b$	c #237D21",
"c$	c #204A20",
"d$	c #22A622",
"e$	c #26B123",
"f$	c #4BB829",
"g$	c #9CD33F",
"h$	c #D4EE51",
"i$	c #E5F757",
"j$	c #DFF556",
"k$	c #B3D847",
"l$	c #6FB832",
"m$	c #2C9223",
"n$	c #205920",
"o$	c #217421",
"p$	c #218321",
"q$	c #228921",
"r$	c #219E21",
"s$	c #4FB72A",
"t$	c #A0D240",
"u$	c #D2EA50",
"v$	c #DCF055",
"w$	c #E1F456",
"x$	c #E6F858",
"y$	c #E1F455",
"z$	c #D9EF54",
"A$	c #C1DE4B",
"B$	c #7AB735",
"C$	c #329123",
"D$	c #249122",
"E$	c #25B523",
"F$	c #22A522",
"G$	c #206D20",
"H$	c #249722",
"I$	c #429526",
"J$	c #79AC34",
"K$	c #A5CA41",
"L$	c #B2DA45",
"M$	c #ACD943",
"N$	c #A6D541",
"O$	c #A1D040",
"P$	c #9CCA3E",
"Q$	c #87B937",
"R$	c #3F9025",
"S$	c #217A20",
"T$	c #259E23",
"U$	c #26CB25",
"V$	c #249124",
"W$	c #208520",
"X$	c #20561F",
"Y$	c #235D20",
"Z$	c #367A23",
"`$	c #439F27",
" %	c #3CB026",
".%	c #3FB027",
"+%	c #3AA325",
"@%	c #339124",
"#%	c #318722",
"$%	c #237B21",
"%%	c #229921",
"&%	c #23A723",
"*%	c #1F6E1F",
"=%	c #218C21",
"-%	c #218421",
";%	c #23B323",
">%	c #219821",
",%	c #205820",
"'%	c #228B22",
")%	c #1F711F",
"!%	c #217020",
"~%	c #205C20",
"  . . . + @ # $ $ $ % & * = = - ; > , ' ) ! ~ { { { { { { { { { { { { ] ^ / { = ",
". . . . ( _ % $ $ $ % : < ; [ } | 1 2 3 4 ; - { { { { { { { { { = , 5 6 ^ { { { ",
". . . 7 8 9 $ $ $ $ 0 1 [ a b c d e f g h _ i / j k ~ ~ { { { ~ l c m 9 - { { { ",
". .   n o p $ $ $ 0 q ) r ' 4 s ! t t u v w /     j x a < ~ y z A B C & > { { { ",
"{ . D E ) h $ 0 9 b F G j j G t j     j H I j       k [ J [ 1 K L $ $ M 4 = { { ",
"N O P { * 1 h Q 4 r G       j j       j R S T / k     j j k x U V $ $ % : * = { ",
"W X Y ; - Z 4 ! /   k     j G j   j / `  ...+.@.#.i k         $.%.&.$ $ h } *.{ ",
"% 0 =.-.~ { { j j k /     / ;.G / >.,.'.).!.~.{.].^.' j       [ /.(.&.% p _., { ",
"$ $ 0 s -     j k / k     i :.<.[.}.|.1.2.3.4.5.&.6.7./     j 8.9.0.a.q } 4 , = ",
"$ $ h ) =               j b.c.d.e.f.g.h.i.j.k.l.B m.n.[ o.k ( p.q.r.s.) ~ = = { ",
"p M _.* { k / j   j j   k t.u.v.w.x.y.z.A.B.C.D.E.F.G.# H.r F a.I.J.K.- { { { { ",
"1 J * ~ *.H.L.[ x i r o./ M.N.O.P.Q.R.S.T.U.V.W.X.Y.Z.`.0 8.C  +.+++# - { { { { ",
"s ; { { } 0 @+% #+c : e [ G T $+%+&+*+=+-+;+>+&+,+'+)+B B !+~+{+ +V ' k   { { { ",
"[ ~ . < % B U U &.]+^+/+(+| _+:+<+[+}+|+1+}+2+3+4+5+6+B B U 7+8+9+H j     { { { ",
"*.{ = _.0+B &.a+b+c+d+e+.+f+g+h+i+j+k+k+l+l+k+m+n+o+p+q+q+r+s+t+u+_ k j j < ; = ",
". { v+w+x+U x+y+z+A+B+C+D+E+F+G+H+k+k+I+J+K+|+k+1+L+M+N+O+P+s+$ p.Q+R+G *.} 7.1 ",
"{ * S+T+U+]+V+W+X+Y+Y+Y+Z+`+ @.@k+k+k++@@@#@l+k+|+$@%@&@*@=@-@# _ f+;@y a # M L ",
"~ y >@,@'@/.z+)@C+C+C+B+!@~@{@m+k+k+k+]@^@/@K+k+(@_@:@<@[@B+z+}@L.|@(.| =.# 1 _.",
"{ = 1@& S+2@3@C+Y+B+C+Y+4@5@6@K+k+k+I+7@8@9@0@k+a@b@c@d@e@C+f@g@&.h@i@B h =.) Z ",
"{ { = > &.j@C+Y+Y+Y+C+Y+k@l@m@a@k+k+0@n@o@p@q@l+I+r@s@t@u@C+=@v@$ b+/.w@0 =.) Z ",
"*.{ { ~ x@y@C+Y+Y+Y+Y+Y+X+z@A@l+k+I+B@C@D@E@F@}+l+(@G@H@I@C+D+J@J K@v@V p # 1 | ",
"4 * * r L@M@N@Y+Y+Y+Y+Y+O@P@Q@l+l+R@S@T@U@V@W@X@k+(@Y@Z@`@C+r. #| d .##+L.c M +#",
"& 8.@###Z >@d+B+Y+Y+Y+C+$#%#&#l+a@*#=#-#;#>#,#'#k+a@)#!#~#{#]#^#0+b u+z , J # /#",
"0 (#_#9 s z M@A+Y+Y+C+:#<#[#&#l+I+}#-+|#1#2#3#4#|+5#6#7#8#X+3@z+9#q 0#S+; < =.% ",
"$ $ $ % # M /.]#C+Y+C+)@a#b#r@l+|+a@a@c#d#e#f#2+k+(@g#h#i#B+B+j#k#M K }@l#4 9 $ ",
"$ $ B m#% h J@n#X+C+B+)@o#p#q#l+l+a@}+r#P@s#t#.@a@l+}#f#u#N@A+v#w#0 V &.q =.p $ ",
"$ 0 x#y#% 7.z#A#D+)@)@X+B#C#D#E#k+}+6@F#G#H#I#J#l+l+5#K#L#M#N#(.V $ $ $ $ % $ $ ",
"9 | O#P#Q#J } q+R#2@y@S#T#U#q#K+k+l+V#W#X#Y#Z#`#(@k+r@ $.$+$@$q+w@B $ $ $ $ % p ",
"-.> / #$_ $$( Y 8.B b+N#%$&$*$}+k+k+K+=$-$;$>$,$l+k+'$)$!$~$q {$]$B $ $ $ U 0 e ",
"7 . . . ( ^$/$k / x z#($i._$:$J#l+k+k+K+<$J+a@|+k+m+[$}$|$' i h 0+B $ U B 1$-.( ",
"2$. . . . 3$4$G   G p 9.5$6$d#7$8$l+k+k+k+k+k+k+a@9$0$a$b$-.a $ V &.V x+A N { { ",
"c$. . . . / Y /   j i a+d$e$f$g$h$i$J+a@k+k+k+(@j$k$l$m$9 ' n$o$p$q$++r$e { { { ",
". . . . . * L.j       Y g@($e$s$t$u$v$w$x$i$y$z$A$B$C$6.b i G R+D$E$)@F$' { { { ",
"{ j . . = =.G$        j G$V+M@H$I$J$K$L$M$N$O$P$Q$R$S$$ 9 [ / H.T$U$Y+V$( { { { ",
"{ 7   . > W$U           t p $ $$X$Y$Z$`$ %.%+%@%#%$%B B Q ' G ^.%%c+&%*%= { { { ",
"{ j { Z A t+p             i x k     o.# U+R#=%V U U U U L.( r )+>@V $ N { { { { ",
"{ { - V ^#{+J             o.G j       ( % J@-%B B $ U p Y j i 9 $ 0 L.~ { { { j ",
"{ { ~ L ;%>%; {       j o.##,%/         -.'%^+L U B h s o.j i d % $ & < { { { { ",
"{ { { N $ )%= { .     / -.d Y /         [ w#a+b 7.L.a t / G a q % $ 0 e , { { { ",
"{ { { { - N = { { { { { - ! x k     k r !%w+h t k k k G i ~%8.p $ $ $ 0 | t { { "};
