/* XPM */
static char * f_02_xpm[] = {
"40 40 520 2",
"  	c #1F4A1F",
". 	c #1E4A1E",
"+ 	c #214C21",
"@ 	c #215721",
"# 	c #206F20",
"$ 	c #207520",
"% 	c #207420",
"& 	c #1F6A1F",
"* 	c #1E551E",
"= 	c #1E4C1E",
"- 	c #1E4E1E",
"; 	c #1E501E",
"> 	c #1E511E",
", 	c #1E521E",
"' 	c #1F551F",
") 	c #1F5D1F",
"! 	c #1F561F",
"~ 	c #1E4D1E",
"{ 	c #1E4B1E",
"] 	c #214D21",
"^ 	c #205220",
"/ 	c #1F4D1F",
"( 	c #1F4F1F",
"_ 	c #206420",
": 	c #1F691F",
"< 	c #1E541E",
"[ 	c #1F581F",
"} 	c #1F611F",
"| 	c #1F651F",
"1 	c #1F681F",
"2 	c #226A22",
"3 	c #276B27",
"4 	c #1F5C1F",
"5 	c #215921",
"6 	c #226122",
"7 	c #204C20",
"8 	c #235923",
"9 	c #206E20",
"0 	c #207320",
"a 	c #1F5B1F",
"b 	c #206720",
"c 	c #206B20",
"d 	c #206820",
"e 	c #1F661F",
"f 	c #226E22",
"g 	c #227722",
"h 	c #207120",
"i 	c #1F541F",
"j 	c #1F4B1F",
"k 	c #1F4C1F",
"l 	c #1E581E",
"m 	c #227C22",
"n 	c #2B522B",
"o 	c #215F21",
"p 	c #207220",
"q 	c #206C20",
"r 	c #1F521F",
"s 	c #1F601F",
"t 	c #1F511F",
"u 	c #205D1F",
"v 	c #227321",
"w 	c #216520",
"x 	c #1F531F",
"y 	c #1E571E",
"z 	c #1F701F",
"A 	c #1F721F",
"B 	c #207620",
"C 	c #217B21",
"D 	c #2C502C",
"E 	c #254F25",
"F 	c #205B20",
"G 	c #1F4E1F",
"H 	c #205F20",
"I 	c #216120",
"J 	c #1F5E1F",
"K 	c #218A21",
"L 	c #207920",
"M 	c #207020",
"N 	c #1E531E",
"O 	c #285228",
"P 	c #2A512A",
"Q 	c #206A20",
"R 	c #215B20",
"S 	c #247220",
"T 	c #20581F",
"U 	c #207720",
"V 	c #207A20",
"W 	c #236A23",
"X 	c #286628",
"Y 	c #1F591F",
"Z 	c #1E561E",
"` 	c #215420",
" .	c #2C6B21",
"..	c #337B23",
"+.	c #2F7422",
"@.	c #256921",
"#.	c #215F20",
"$.	c #206020",
"%.	c #208920",
"&.	c #207820",
"*.	c #1E4F1E",
"=.	c #1F6B1F",
"-.	c #1F5A1F",
";.	c #1F571F",
">.	c #265B20",
",.	c #306922",
"'.	c #2A6321",
").	c #22571F",
"!.	c #255C20",
"~.	c #276020",
"{.	c #226520",
"].	c #206520",
"^.	c #229B22",
"/.	c #219421",
"(.	c #1F671F",
"_.	c #237120",
":.	c #267021",
"<.	c #2E7322",
"[.	c #3D8A25",
"}.	c #2D7522",
"|.	c #20531F",
"1.	c #206920",
"2.	c #22A322",
"3.	c #24C124",
"4.	c #229222",
"5.	c #215920",
"6.	c #308D23",
"7.	c #269F23",
"8.	c #29A823",
"9.	c #2AA924",
"0.	c #238121",
"a.	c #20561F",
"b.	c #1F501F",
"c.	c #217F21",
"d.	c #24A923",
"e.	c #25C525",
"f.	c #2BA02B",
"g.	c #276221",
"h.	c #309323",
"i.	c #26AF23",
"j.	c #27BE25",
"k.	c #26C024",
"l.	c #24A823",
"m.	c #218421",
"n.	c #217220",
"o.	c #216C20",
"p.	c #206620",
"q.	c #205A20",
"r.	c #24AF23",
"s.	c #28B628",
"t.	c #248524",
"u.	c #1F5F1F",
"v.	c #1F621F",
"w.	c #215620",
"x.	c #248921",
"y.	c #29B824",
"z.	c #2DCA26",
"A.	c #2ACB26",
"B.	c #26C525",
"C.	c #25B924",
"D.	c #25B224",
"E.	c #25AF24",
"F.	c #23AD23",
"G.	c #239B22",
"H.	c #229E22",
"I.	c #23AB23",
"J.	c #229D22",
"K.	c #217521",
"L.	c #239522",
"M.	c #28C625",
"N.	c #2ACF26",
"O.	c #2DCF27",
"P.	c #31CF27",
"Q.	c #2ECE27",
"R.	c #38CE29",
"S.	c #34CD28",
"T.	c #2DC426",
"U.	c #23A023",
"V.	c #22A122",
"W.	c #22A022",
"X.	c #218221",
"Y.	c #228A22",
"Z.	c #217D21",
"`.	c #1F771F",
" +	c #24AC23",
".+	c #28CD26",
"++	c #26CF26",
"@+	c #2ED027",
"#+	c #59D42E",
"$+	c #6CD732",
"%+	c #60D630",
"&+	c #65D630",
"*+	c #4FD32D",
"=+	c #42CF2A",
"-+	c #28C126",
";+	c #229822",
">+	c #229422",
",+	c #219121",
"'+	c #207B20",
")+	c #206220",
"!+	c #218E21",
"~+	c #229622",
"{+	c #23A323",
"]+	c #2ABF25",
"^+	c #2CCE27",
"/+	c #27CF26",
"(+	c #35D028",
"_+	c #83DC38",
":+	c #B9EA4A",
"<+	c #A6E543",
"[+	c #6ED733",
"}+	c #35D027",
"|+	c #3BD029",
"1+	c #35CE28",
"2+	c #25BB24",
"3+	c #218021",
"4+	c #218B21",
"5+	c #1E5B1E",
"6+	c #208320",
"7+	c #206320",
"8+	c #24AD23",
"9+	c #2EC927",
"0+	c #2FCF27",
"a+	c #2ECF27",
"b+	c #56D42E",
"c+	c #AAE644",
"d+	c #DCF653",
"e+	c #C0EC4B",
"f+	c #73D835",
"g+	c #34D028",
"h+	c #33D028",
"i+	c #46D22B",
"j+	c #32C927",
"k+	c #229322",
"l+	c #217D20",
"m+	c #1F631F",
"n+	c #1F641F",
"o+	c #207D20",
"p+	c #23B123",
"q+	c #208120",
"r+	c #218921",
"s+	c #205E20",
"t+	c #229522",
"u+	c #27C125",
"v+	c #2DCE27",
"w+	c #39D028",
"x+	c #7FDB38",
"y+	c #C9EF4D",
"z+	c #E8FA58",
"A+	c #D1F251",
"B+	c #8DDD3B",
"C+	c #46D12B",
"D+	c #3CD029",
"E+	c #47D22B",
"F+	c #37C627",
"G+	c #228B21",
"H+	c #205D20",
"I+	c #228C22",
"J+	c #208620",
"K+	c #208020",
"L+	c #22AA22",
"M+	c #219F21",
"N+	c #229922",
"O+	c #217921",
"P+	c #24B124",
"Q+	c #34CA28",
"R+	c #6CD733",
"S+	c #B7E947",
"T+	c #DFF755",
"U+	c #EDFD5A",
"V+	c #E1F956",
"W+	c #BBEB49",
"X+	c #81DB38",
"Y+	c #54D32D",
"Z+	c #36D028",
"`+	c #2DC225",
" @	c #218121",
".@	c #217621",
"+@	c #229121",
"@@	c #1E5A1E",
"#@	c #24AC24",
"$@	c #206D20",
"%@	c #229122",
"&@	c #40BC29",
"*@	c #A1E141",
"=@	c #DCF754",
"-@	c #EAFB59",
";@	c #EEFD5A",
">@	c #EBFC59",
",@	c #DFF756",
"'@	c #BEEB4A",
")@	c #89DD3B",
"!@	c #4DD32B",
"~@	c #2BC526",
"{@	c #228E22",
"]@	c #216F21",
"^@	c #239A22",
"/@	c #219B21",
"(@	c #24B824",
"_@	c #24B924",
":@	c #216720",
"<@	c #40A027",
"[@	c #B4E046",
"}@	c #EAFC59",
"|@	c #ECFC59",
"1@	c #D7F352",
"2@	c #A0E341",
"3@	c #44D22A",
"4@	c #27CA26",
"5@	c #23A523",
"6@	c #218621",
"7@	c #207C20",
"8@	c #1F6F1F",
"9@	c #24B524",
"0@	c #25C725",
"a@	c #23AC23",
"b@	c #218521",
"c@	c #217821",
"d@	c #368724",
"e@	c #ABD643",
"f@	c #E9FA59",
"g@	c #DCF554",
"h@	c #97E03E",
"i@	c #33D027",
"j@	c #26CC26",
"k@	c #25BA25",
"l@	c #218C21",
"m@	c #217C20",
"n@	c #1E5F1E",
"o@	c #26C926",
"p@	c #25BC25",
"q@	c #24B324",
"r@	c #24B224",
"s@	c #239623",
"t@	c #2F7D23",
"u@	c #A4CF42",
"v@	c #E7F858",
"w@	c #E2F856",
"x@	c #A0E241",
"y@	c #34C327",
"z@	c #24AD24",
"A@	c #239923",
"B@	c #22A422",
"C@	c #239723",
"D@	c #208C20",
"E@	c #1F6D1F",
"F@	c #247124",
"G@	c #236B23",
"H@	c #206120",
"I@	c #24B724",
"J@	c #26CD26",
"K@	c #26CE26",
"L@	c #26CB26",
"M@	c #24AE24",
"N@	c #20541F",
"O@	c #3D8525",
"P@	c #B2D645",
"Q@	c #E8F857",
"R@	c #E8FA59",
"S@	c #ACE245",
"T@	c #35AA26",
"U@	c #218D21",
"V@	c #297729",
"W@	c #217221",
"X@	c #217321",
"Y@	c #25C925",
"Z@	c #24AF24",
"`@	c #217A21",
" #	c #226720",
".#	c #5E9F2D",
"+#	c #CDE74E",
"@#	c #EBFB5A",
"##	c #EAFB5A",
"$#	c #B5DF48",
"%#	c #3A9225",
"&#	c #219021",
"*#	c #26C826",
"=#	c #24A824",
"-#	c #226820",
";#	c #65AB30",
">#	c #D5F052",
",#	c #EAFA58",
"'#	c #BAE24B",
")#	c #419926",
"!#	c #228922",
"~#	c #1E5C1E",
"{#	c #23AA23",
"]#	c #239A23",
"^#	c #23A223",
"/#	c #54A92B",
"(#	c #C7EC4E",
"_#	c #E6FA58",
":#	c #B5E548",
"<#	c #50B62A",
"[#	c #228621",
"}#	c #277C27",
"|#	c #288928",
"1#	c #205820",
"2#	c #216820",
"3#	c #399D25",
"4#	c #AFE146",
"5#	c #E9FB58",
"6#	c #DBF653",
"7#	c #99E13F",
"8#	c #3CCA28",
"9#	c #24AB24",
"0#	c #22A622",
"a#	c #249A24",
"b#	c #228021",
"c#	c #207E20",
"d#	c #296D29",
"e#	c #298429",
"f#	c #216020",
"g#	c #2D7922",
"h#	c #98CA3D",
"i#	c #D1F350",
"j#	c #30D027",
"k#	c #26C625",
"l#	c #23A123",
"m#	c #25A424",
"n#	c #205620",
"o#	c #205720",
"p#	c #235820",
"q#	c #7FAC35",
"r#	c #E3F658",
"s#	c #CDF14F",
"t#	c #86DC3A",
"u#	c #38D028",
"v#	c #27BF25",
"w#	c #217421",
"x#	c #228622",
"y#	c #218F21",
"z#	c #216521",
"A#	c #21511F",
"B#	c #6E9A30",
"C#	c #DEF353",
"D#	c #EEFE5A",
"E#	c #E4FA57",
"F#	c #C3EE4C",
"G#	c #83DC39",
"H#	c #4AD12B",
"I#	c #2CBE26",
"J#	c #217120",
"K#	c #1F6C1F",
"L#	c #234C23",
"M#	c #235223",
"N#	c #21521F",
"O#	c #58922B",
"P#	c #BAE44A",
"Q#	c #DBF753",
"R#	c #E8FB57",
"S#	c #DAF653",
"T#	c #A8E643",
"U#	c #37D028",
"V#	c #28C326",
"W#	c #239D22",
"X#	c #216F20",
"Y#	c #204A20",
"Z#	c #328D24",
"`#	c #6CCC32",
" $	c #95DF3E",
".$	c #C0ED4A",
"+$	c #CEF250",
"@$	c #B8EB49",
"#$	c #8ADD3B",
"$$	c #4DD22C",
"%$	c #27C726",
"&$	c #205120",
"*$	c #216D21",
"=$	c #218321",
"-$	c #228921",
";$	c #219E21",
">$	c #32BA26",
",$	c #42CA2A",
"'$	c #7AD536",
")$	c #96DF3F",
"!$	c #6FD733",
"~$	c #51D22C",
"{$	c #39D029",
"]$	c #29CB26",
"^$	c #24AA24",
"/$	c #249022",
"($	c #25B523",
"_$	c #25CA25",
":$	c #22A522",
"<$	c #249522",
"[$	c #26A323",
"}$	c #40AB27",
"|$	c #4EBB2B",
"1$	c #2CCF27",
"2$	c #32CF27",
"3$	c #38CD28",
"4$	c #2CC426",
"5$	c #259D23",
"6$	c #26CB25",
"7$	c #249124",
"8$	c #208520",
"9$	c #268E22",
"0$	c #28BA25",
"a$	c #28CB26",
"b$	c #29C425",
"c$	c #2BB624",
"d$	c #249F23",
"e$	c #218721",
"f$	c #229921",
"g$	c #23A823",
"h$	c #23A723",
"i$	c #1F6E1F",
"j$	c #23A423",
"k$	c #24B424",
"l$	c #217720",
"m$	c #219221",
"n$	c #229022",
"o$	c #23B323",
"p$	c #219821",
"q$	c #228822",
"r$	c #1F711F",
"s$	c #218821",
"t$	c #217020",
"u$	c #205C20",
"  . . . + @ # $ $ $ % & * = = - ; > , ' ) ! ~ { { { { { { { { { { { { ] ^ / { = ",
". . . . ( _ % $ $ $ % : < ; [ } | 1 2 3 4 ; - { { { { { { { { { = , 5 6 ^ { { { ",
". . . 7 8 9 $ $ $ $ 0 1 [ a b c d e f g h _ i / j k ~ ~ { { { ~ l c m 9 - { { { ",
". .   n o p $ $ $ 0 q ) r ' 4 s ! t t u v w /     j x a < ~ y z A B C & > { { { ",
"{ . D E ) h $ 0 9 b F G j j G t j     j H I j       k [ J [ 1 K L $ $ M 4 = { { ",
"N O P { * 1 h Q 4 r G       j j       j R S T / k     j j k x U V $ $ % : * = { ",
"W X Y ; - Z 4 ! /   k     j G j   j / `  ...+.@.#.i k         $.%.&.$ $ h } *.{ ",
"% 0 =.-.~ { { j j k /     / ;.G / >.,.'.>.).!.~.{.].i j       [ ^./.&.% p (., { ",
"$ $ 0 s -     j k / k     i _.:.<.[.}.|./ k / G r -.[ /     j 1.2.3.4.q } 4 , = ",
"$ $ h ) =               j 5.6.7.8.9.0.a.( G G G G ( t b.( k ( c.d.e.f.) ~ = = { ",
"p M (.* { k / j   j j   k g.h.i.j.k.l.m.n.o.c p.i / k G t b.q.4.r.s.t.- { { { { ",
"1 J * ~ *.u.v.[ x i r b./ w.x.y.z.A.B.C.D.E.F.G.h b.k k ( ! h H.I.J.# - { { { { ",
"s ; { { } 0 K.0 =.Q : e [ ! L.M.N.O.P.Q.Q.R.S.T.U.1.( k k t h V.W.V ' k   { { { ",
"[ ~ . < % B % # c B X.Y.Z.`. +.+++@+#+$+%+&+*+=+-+;+$./ k / u >+,+H j     { { { ",
"*.{ = (.'+B h Q )+L !+~+^.{+]+^+/+(+_+:+<+[+}+|+1+2+X.r k k ' 3+4+_ k j j < ; = ",
". { 5+4+6+B U c ;.d b 7+X.8+9+0+a+b+c+d+e+f+g+h+i+j+k+[ k k r ].Z.l+m+G *.} n+1 ",
"{ * o+p+;+q+r+U a [ ( G s+t+u+v+w+x+y+z+A+B+C+D+E+F+G+r k / H+]._ I+J+y a # M L ",
"~ y K+L+M+N+J.q G G ( / r O+P+Q+R+S+T+U+V+W+X+Y+Z+`+ @( k G q .@v.+@/.| =.# 1 (.",
"{ = @@& o+F.#@$@G k ( G b._ %@&@*@=@-@;@>@,@'@)@!@~@{@' k ( ]@ @U ^@/@B h =.) Z ",
"{ { = > &.(@_@m.' G x ( t r :@<@[@}@;@;@;@|@1@2@3@4@5@1.b.x .@6@% >+^.7@0 =.) Z ",
"*.{ { ~ 8@9@0@a@b@M c@b ;./ i d@e@f@;@;@;@U+g@h@i@j@k@4.c ].l@l@J m@t+V p # 1 | ",
"4 * * r n@V.o@0@p@q@r@s@b b.x t@u@v@;@;@;@;@w@x@y@z@A@4.K I+B@C@| d D@E@v.c M F@",
"& 1.G@H@Z K+I@J@K@J@L@M@.@x N@O@P@Q@;@;@;@;@R@S@T@% Y $.$@p %@J.V b U@z , J # V@",
"0 W@X@9 s z V.Y@++++j@Z@`@Y  #.#+#@#;@;@;@;@##$#%#i k G x b.Q >+r+q &#o+; < =.% ",
"$ $ $ % # M ^.e.o@*#*#=#c b.-#;#>#;@;@;@;@;@,#'#)#-./ b.' G -.6@!#M K X.~#4 9 $ ",
"$ $ B c@% h ,+{#]#4.^#]#b G ]./#(#|@;@;@;@;@_#:#<#[#$@h q ' a 3+3+p V &.q =.p $ ",
"$ 0 }#|#% n+U $ 1#r b m.2#r _ 3#4#5#;@;@;@U+6#7#8#k@9#0#a#b#C c#B $ $ $ $ % $ $ ",
"9 | d#e#O+) -.x k k G c f#( r g#h#z+;@;@;@|@i#X+j#k#q@l#m#W.4+ @'+B $ $ $ $ % p ",
"-.> / n#_ 7+G G k k / H@o#k k p#q#r#;@;@;@5#s#t#u#v#]#w#x#y## Z.c#B $ $ $ U 0 e ",
"7 . . . ( z#1#k k k / 4 n#k k A#B#C#D#;@;@E#F#G#H#I#>+c J#h [ h '+B $ U B K#-.( ",
"L#. . . . M#H+/ j k / i [ G k N#O#P#Q#R#-@S#T##+U#V#W#X#u a ;.p V &.V 6+A N { { ",
"Y#. . . . / Y / j k k / r ( / N@Z#`# $.$+$@$#$$$O.%$5@o.t G &$*$=$-$J.;$e { { { ",
". . . . . * v.j j k k k ( / / q.I+>$,$'$)$!$~${$@+]$^$1./ k k 4 /$($_$:$' { { { ",
"{ j . . = =.$@    j j k b.r 1#_ O+<$[$}$|$j+1$2$3$4$^#]@x / k a 5$6$++7$( { { { ",
"{ 7   . > 8$U       j j / r Y ' ' b :@ #9$0$a$b$c$d$e$p s+t G o.f$g$h$i$= { { { ",
"{ j { Z A N+p         j j b.t ( ( x G / d j$k${+{@K+L U s ( r l$K+V $ N { { { { ",
"{ { - V F.{#J             ( G k / / / G m+m$n$K+L $ U p Y j i 9 $ 0 v.~ { { { j ",
"{ { ~ L o$p$; {       j b.$.o#/     j j [ q$K L U B h s b.j i d % $ & < { { { { ",
"{ { { N $ r$= { .     / -.d Y /         [ s$ @b n+v.a t / G a q % $ 0 e , { { { ",
"{ { { { - N = { { { { { - ! x k     k r t$4+h t k k k G i u$1.p $ $ $ 0 | t { { "};
