/* XPM */
static char * exit_xpm[] = {
"40 40 65 1",
" 	c #000000",
".	c #FFE101",
"+	c #FFE11C",
"@	c #FFE127",
"#	c #FFE679",
"$	c #FFEB9C",
"%	c #FFF3C8",
"&	c #FFFFFF",
"*	c #E5E5E5",
"=	c #FBFBFB",
"-	c #FFE45A",
";	c #FFE673",
">	c #FFECA5",
",	c #0C0C0C",
"'	c #A0A0A0",
")	c #FFE886",
"!	c #FFE990",
"~	c #020202",
"{	c #191919",
"]	c #FFE66F",
"^	c #FFEEB0",
"/	c #FFF5D4",
"(	c #8E8E8E",
"_	c #4C4C4C",
":	c #090909",
"<	c #B8B8B8",
"[	c #7F7F7F",
"}	c #0E0E0E",
"|	c #030303",
"1	c #BFBFBF",
"2	c #6F6F6F",
"3	c #343434",
"4	c #F5F5F5",
"5	c #B5B5B5",
"6	c #E6E6E6",
"7	c #282828",
"8	c #1B1B1B",
"9	c #9E9E9E",
"0	c #151515",
"a	c #E2E2E2",
"b	c #1C1C1C",
"c	c #161616",
"d	c #909090",
"e	c #121212",
"f	c #A6A6A6",
"g	c #2A2A2A",
"h	c #131313",
"i	c #F7F7F7",
"j	c #101010",
"k	c #FEFEFE",
"l	c #E7E7E7",
"m	c #141414",
"n	c #F9F9F9",
"o	c #363636",
"p	c #2B2B2B",
"q	c #DBDBDB",
"r	c #878787",
"s	c #3F3F3F",
"t	c #454545",
"u	c #C6C6C6",
"v	c #F1F1F1",
"w	c #0F0F0F",
"x	c #4F4F4F",
"y	c #3A3A3A",
"z	c #E8E8E8",
"                                        ",
"                                        ",
"                                        ",
"                                        ",
"                                        ",
"                                        ",
"                                        ",
"                                        ",
"                                        ",
"                                        ",
"                                        ",
"             .+@#$%&&&&&&*=             ",
"             +-;>%&&&&&& ,'             ",
"             @)!%&&&      ~{            ",
"             ]^/&         (_            ",
"             $%&&        :<             ",
"             &&&&         [             ",
"             &&&&        }(             ",
"             &&&&        |1             ",
"             &&&&         2             ",
"             &&&3         |             ",
"             4&&5}        [             ",
"             4&&67       89             ",
"            04&&ab        9             ",
"            c4&&&         d             ",
"            e&&&&         f             ",
"            e&&&&g        d             ",
"            h&&&&&        <             ",
"            hi&&&&&&&     j             ",
"             k&&&&&&&&&  c9             ",
"             &&&&&&&&&&&&4l             ",
"            m&&&&&&&&&&&&kn&            ",
"            :o&&&&&&&&&&&&&&            ",
"            ,c&&&&&&&&&&&&&&&           ",
"             pq&&&&&&&&&&&&&&           ",
"             mr&&&&&&&&&&&&&&&          ",
"              s4&&&&&&&&&&&&&&          ",
"              tuv&&&&&&&&&&&&&&         ",
"              wx=&&&&&&&&&&&&&&         ",
"               yzz&&&&&&&&&&&&&&        "};
