/* XPM */
static char * f_00_xpm[] = {
"40 40 276 2",
"  	c #000000",
". 	c #010100",
"+ 	c #020200",
"@ 	c #040300",
"# 	c #070700",
"$ 	c #0C0B00",
"% 	c #0E0D00",
"& 	c #030300",
"* 	c #0A0900",
"= 	c #111000",
"- 	c #161500",
"; 	c #1B1A00",
"> 	c #201E00",
", 	c #222100",
"' 	c #141300",
") 	c #232100",
"! 	c #292800",
"~ 	c #2E2D00",
"{ 	c #312F00",
"] 	c #333200",
"^ 	c #353400",
"/ 	c #060500",
"( 	c #0F0E00",
"_ 	c #1C1B00",
": 	c #252400",
"< 	c #2C2B00",
"[ 	c #3C3A00",
"} 	c #413F00",
"| 	c #434100",
"1 	c #464300",
"2 	c #484600",
"3 	c #090800",
"4 	c #201F00",
"5 	c #363400",
"6 	c #3F3D00",
"7 	c #464400",
"8 	c #4D4B00",
"9 	c #535100",
"0 	c #555300",
"a 	c #585500",
"b 	c #5A5700",
"c 	c #171600",
"d 	c #3B3900",
"e 	c #444200",
"f 	c #565300",
"g 	c #5D5A00",
"h 	c #636000",
"i 	c #676400",
"j 	c #6A6700",
"k 	c #6C6900",
"l 	c #262400",
"m 	c #343200",
"n 	c #4B4800",
"o 	c #5F5C00",
"p 	c #6E6B00",
"q 	c #737000",
"r 	c #777400",
"s 	c #7B7800",
"t 	c #7D7A00",
"u 	c #050500",
"v 	c #131200",
"w 	c #242300",
"x 	c #403E00",
"y 	c #4B4900",
"z 	c #595600",
"A 	c #646100",
"B 	c #6D6900",
"C 	c #757200",
"D 	c #7E7A00",
"E 	c #848000",
"F 	c #888400",
"G 	c #8D8900",
"H 	c #8F8B00",
"I 	c #1F1E00",
"J 	c #302E00",
"K 	c #3E3C00",
"L 	c #666300",
"M 	c #716E00",
"N 	c #7C7800",
"O 	c #868200",
"P 	c #959100",
"Q 	c #9A9600",
"R 	c #9E9A00",
"S 	c #A09C00",
"T 	c #080800",
"U 	c #1A1900",
"V 	c #2B2A00",
"W 	c #393800",
"X 	c #494700",
"Y 	c #7E7B00",
"Z 	c #898500",
"` 	c #949000",
" .	c #9D9800",
"..	c #A5A100",
"+.	c #ABA700",
"@.	c #B0AB00",
"#.	c #B2AD00",
"$.	c #030200",
"%.	c #333100",
"&.	c #626000",
"*.	c #706D00",
"=.	c #7D7900",
"-.	c #8A8600",
";.	c #969200",
">.	c #A39F00",
",.	c #ADA900",
"'.	c #B6B100",
").	c #BDB700",
"!.	c #C1BB00",
"~.	c #C3BD00",
"{.	c #181700",
"].	c #2A2800",
"^.	c #4C4A00",
"/.	c #5C5900",
"(.	c #6B6800",
"_.	c #7A7700",
":.	c #B1AC00",
"<.	c #BBB600",
"[.	c #C3BE00",
"}.	c #CBC500",
"|.	c #D0CA00",
"1.	c #D1CC00",
"2.	c #0D0D00",
"3.	c #656200",
"4.	c #747100",
"5.	c #938F00",
"6.	c #A29D00",
"7.	c #BDB800",
"8.	c #C7C200",
"9.	c #D7D100",
"0.	c #DBD500",
"a.	c #DED800",
"b.	c #121100",
"c.	c #383700",
"d.	c #4A4800",
"e.	c #8C8800",
"f.	c #9B9700",
"g.	c #ABA600",
"h.	c #BAB500",
"i.	c #C6C100",
"j.	c #D1CB00",
"k.	c #DAD400",
"l.	c #E1DB00",
"m.	c #E6DF00",
"n.	c #E8E200",
"o.	c #2A2900",
"p.	c #3D3B00",
"q.	c #4F4D00",
"r.	c #615E00",
"s.	c #807C00",
"t.	c #928D00",
"u.	c #A39E00",
"v.	c #B4AF00",
"w.	c #C2BD00",
"x.	c #CFC900",
"y.	c #E2DC00",
"z.	c #E9E300",
"A.	c #EEE700",
"B.	c #F0E900",
"C.	c #2D2B00",
"D.	c #504E00",
"E.	c #625F00",
"F.	c #848100",
"G.	c #A7A300",
"H.	c #B9B400",
"I.	c #C8C300",
"J.	c #D5CF00",
"K.	c #DFD900",
"L.	c #E9E200",
"M.	c #F4ED00",
"N.	c #F6F000",
"O.	c #090900",
"P.	c #1D1B00",
"Q.	c #2F2E00",
"R.	c #424000",
"S.	c #545100",
"T.	c #ACA700",
"U.	c #CCC700",
"V.	c #D9D300",
"W.	c #E4DE00",
"X.	c #ECE600",
"Y.	c #F3EC00",
"Z.	c #F8F100",
"`.	c #FBF400",
" +	c #555200",
".+	c #787500",
"++	c #ADA800",
"@+	c #BEB900",
"#+	c #CDC800",
"$+	c #E5DF00",
"%+	c #F5EE00",
"&+	c #FAF300",
"*+	c #FDF700",
"=+	c #EDE700",
"-+	c #F9F200",
";+	c #FCF500",
">+	c #2E2C00",
",+	c #514F00",
"'+	c #757100",
")+	c #989300",
"!+	c #A9A400",
"~+	c #CAC500",
"{+	c #D6D100",
"]+	c #EAE400",
"^+	c #F1EB00",
"/+	c #F6EF00",
"(+	c #F8F200",
"_+	c #060600",
":+	c #191800",
"<+	c #726F00",
"[+	c #827E00",
"}+	c #A5A000",
"|+	c #C5C000",
"1+	c #D2CC00",
"2+	c #DCD700",
"3+	c #F0EA00",
"4+	c #F2EC00",
"5+	c #272600",
"6+	c #3A3800",
"7+	c #4D4A00",
"8+	c #AEAA00",
"9+	c #C9C400",
"0+	c #D4CE00",
"a+	c #DDD700",
"b+	c #EBE500",
"c+	c #878300",
"d+	c #A6A100",
"e+	c #B5B000",
"f+	c #C1BC00",
"g+	c #CBC600",
"h+	c #0A0A00",
"i+	c #2D2C00",
"j+	c #5F5D00",
"k+	c #6F6C00",
"l+	c #C0BB00",
"m+	c #040400",
"n+	c #363500",
"o+	c #565400",
"p+	c #747000",
"q+	c #817E00",
"r+	c #8E8A00",
"s+	c #B3AE00",
"t+	c #BCB700",
"u+	c #C7C100",
"v+	c #C9C300",
"w+	c #1E1D00",
"x+	c #2F2D00",
"y+	c #787400",
"z+	c #837F00",
"A+	c #9A9500",
"B+	c #B8B300",
"C+	c #5E5B00",
"D+	c #767300",
"E+	c #9C9700",
"F+	c #A19C00",
"G+	c #292700",
"H+	c #696600",
"I+	c #8B8700",
"J+	c #948F00",
"K+	c #0D0C00",
"L+	c #393700",
"M+	c #646200",
"N+	c #6D6A00",
"O+	c #797600",
"P+	c #0E0E00",
"Q+	c #1D1C00",
"R+	c #373500",
"S+	c #736F00",
"T+	c #323100",
"U+	c #454300",
"V+	c #5C5A00",
"W+	c #0B0A00",
"X+	c #070600",
"Y+	c #1B1900",
"Z+	c #383600",
"`+	c #272500",
"                                                                                ",
"                                  . . . . . .                                   ",
"                            + @ # $ % % % % $ # @ +                             ",
"                      . & * = - ; > , , , , > ; - = * & .                       ",
"                    & * ' ; ) ! ~ { ] ^ ^ ] { ~ ! ) ; ' * &                     ",
"                . / ( _ : < ^ [ } | 1 2 2 1 | } [ ^ < : _ ( / .                 ",
"              . 3 ' 4 < 5 6 7 8 9 0 a b b a 0 9 8 7 6 5 < 4 ' 3 .               ",
"            . 3 c : { d e 8 f g h i j k k j i h g f 8 e d { : c 3 .             ",
"          . 3 c l m 6 n f o i p q r s t t s r q p i o f n 6 m l c 3 .           ",
"          u v w m x y z A B C D E F G H H G F E D C B A z y x m w v u           ",
"        & % I J K y z L M N O H P Q R S S R Q P H O N M L z y K J I % &         ",
"        T U V W X z L q Y Z `  ...+.@.#.#.@.+... .` Z Y q L z X W V U T         ",
"      $.= , %.| 9 &.*.=.-.;.>.,.'.).!.~.~.!.).'.,.>.;.-.=.*.&.9 | %., = $.      ",
"      T {.].[ ^./.(._.Z ;.>.:.<.[.}.|.1.1.|.}.[.<.:.>.;.Z _.(./.^.[ ].{.T       ",
"    . 2.4 %.| 9 3.4.E 5.6.:.7.8.|.9.0.a.a.0.9.|.8.7.:.6.5.E 4.3.9 | %.4 2..     ",
"    & b.: c.d.b j s e.f.g.h.i.j.k.l.m.n.n.m.l.k.j.i.h.g.f.e.s j b d.c.: b.&     ",
"    u c o.p.q.r.*.s.t.u.v.w.x.k.y.z.A.B.B.A.z.y.k.x.w.v.u.t.s.*.r.q.p.o.c u     ",
"    3 _ C.K D.E.q F.;.G.H.I.J.K.L.B.M.N.N.M.B.L.K.J.I.H.G.;.F.q E.D.K C._ 3     ",
"  . O.P.Q.R.S.L r Z Q T.7.U.V.W.X.Y.Z.`.`.Z.Y.X.W.V.U.7.T.Q Z r L S.R.Q.P.O..   ",
"  . O.P.J R. +i .+-.f.++@+#+k.$+A.%+&+*+*+&+%+A.$+k.#+@+++f.-..+i  +R.J P.O..   ",
"  . O.P.J R. +i .+-.f.++@+#+k.$+=+M.-+;+;+-+M.=+$+k.#+@+++f.-..+i  +R.J P.O..   ",
"  . O.P.>+6 ,+h '+O )+!+h.~+{+l.]+^+/+(+(+/+^+]+l.{+~+h.!+)+O '+h ,+6 >+P.O..   ",
"    _+:+V K D.E.<+[+5.}+'.|+1+2+$+X.3+4+4+3+X.$+2+1+|+'.}+5.[+<+E.D.K V :+_+    ",
"    @ ' 5+6+7+g k t H R 8+7.9+0+a+W.z.b+b+z.W.a+0+9+7.8+R H t k g 7+6+5+' @     ",
"    + ( , ^ 7 f i r c+;.d+e+f+g+0+0.K.y.y.K.0.0+g+f+e+d+;.c+r i f 7 ^ , ( +     ",
"    . h+; i+6 q.j+k+Y G f.!+'.l+I.|.J.{+{+J.|.I.l+'.!+f.G Y k+j+q.6 i+; h+.     ",
"      m+' : n+7 o+L p+q+r+f.!+s+t+~.u+v+v+u+~.t+s+!+f.r+q+p+L o+7 n+: ' m+      ",
"      . $ w+x+p.8 g j y+z+r+A+u.T.#.'.B+B+'.#.T.u.A+r+z+y+j g 8 p.x+w+$ .       ",
"        m+v w m R.D.C+(.D+q+e.P E+F+}+G.G.}+F+E+P e.q+D+(.C+D.R.m w v m+        ",
"        . T c G+c.e D.C+H+<+N F.I+H J+;.;.J+H I+F.N <+H+C+D.e c.G+c T .         ",
"          + K+_ V L+e D./.M+N+4.O+D [+E E [+D O+4.N+M+/.D.e L+V _ K++           ",
"            & P+Q+V R+} n S.g h H+p *.S+S+*.p H+h g S.n } R+V Q+P+&             ",
"              & P+; 5+T+[ U+^.9 b V+o r.r.o V+b 9 ^.U+[ T+5+; P+&               ",
"                & W+- , V ] [ | 2 d.7+q.q.7+d.2 | [ ] V , - W+&                 ",
"                  + X+= Y+, ].{ 5 Z+6+p.p.6+Z+5 { ]., Y+= X++                   ",
"                    . & T = {.Q+, `+! ].].! `+, Q+{.= T & .                     ",
"                        . & _+* ( ' - - - - ' ( * _+& .                         ",
"                              . + & m+m+m+m+& + .                               ",
"                                                                                ",
"                                                                                "};
