/* XPM */
static char * wall_xpm[] = {
"40 40 414 2",
"  	c #000000",
". 	c #010000",
"+ 	c #0E0000",
"@ 	c #170000",
"# 	c #050000",
"$ 	c #240000",
"% 	c #3C0000",
"& 	c #4B0000",
"* 	c #520000",
"= 	c #760000",
"- 	c #8C0D02",
"; 	c #863B15",
"> 	c #71461A",
", 	c #512C0D",
"' 	c #240601",
") 	c #8C0000",
"! 	c #751604",
"~ 	c #9A512A",
"{ 	c #9D535E",
"] 	c #778A53",
"^ 	c #6E903F",
"/ 	c #676E2C",
"( 	c #3D280C",
"_ 	c #A70409",
": 	c #BB1E35",
"< 	c #A9365A",
"[ 	c #A50D1C",
"} 	c #824F1E",
"| 	c #5B9E4C",
"1 	c #557681",
"2 	c #4F8F6C",
"3 	c #6A9352",
"4 	c #776E2C",
"5 	c #4B280C",
"6 	c #BD192F",
"7 	c #9D4978",
"8 	c #60588F",
"9 	c #9C505F",
"0 	c #873B16",
"a 	c #4B0D02",
"b 	c #8B1604",
"c 	c #80646F",
"d 	c #565B90",
"e 	c #54668C",
"f 	c #7E6177",
"g 	c #892C0D",
"h 	c #4B0601",
"i 	c #BC1E2F",
"j 	c #91587A",
"k 	c #57688B",
"l 	c #6C8C5B",
"m 	c #668A3C",
"n 	c #4B3E16",
"o 	c #A71A2B",
"p 	c #88487A",
"q 	c #824B7E",
"r 	c #A61D30",
"s 	c #A13516",
"t 	c #947840",
"u 	c #85765C",
"v 	c #659643",
"w 	c #519D43",
"x 	c #3F5823",
"y 	c #020000",
"z 	c #0B0000",
"A 	c #0A0000",
"B 	c #733411",
"C 	c #717A33",
"D 	c #668939",
"E 	c #57943E",
"F 	c #4B933E",
"G 	c #2D481B",
"H 	c #060000",
"I 	c #090000",
"J 	c #230000",
"K 	c #340000",
"L 	c #390000",
"M 	c #300000",
"N 	c #1C0000",
"O 	c #040000",
"P 	c #091204",
"Q 	c #2C461A",
"R 	c #27280C",
"S 	c #230500",
"T 	c #3C0A02",
"U 	c #4B3511",
"V 	c #4B4218",
"W 	c #3F491B",
"X 	c #2D461A",
"Y 	c #081103",
"Z 	c #310000",
"` 	c #590000",
" .	c #6F0000",
"..	c #7A0000",
"+.	c #690000",
"@.	c #4F0000",
"#.	c #210000",
"$.	c #120000",
"%.	c #47491B",
"&.	c #4E8E3C",
"*.	c #616729",
"=.	c #592309",
"-.	c #470000",
";.	c #8D0408",
">.	c #A71B34",
",.	c #9F365B",
"'.	c #A51120",
").	c #7D0000",
"!.	c #440000",
"~.	c #0C0000",
"{.	c #470401",
"].	c #75511F",
"^.	c #69923E",
"/.	c #916B3C",
"(.	c #9C2A28",
"_.	c #7D0205",
":.	c #6F1203",
"<.	c #A04C33",
"[.	c #8E527A",
"}.	c #5B5890",
"|.	c #A0426B",
"1.	c #94391B",
"2.	c #560D02",
"3.	c #1F0000",
"4.	c #8B6929",
"5.	c #7C9146",
"6.	c #77697E",
"7.	c #9A4471",
"8.	c #9D172B",
"9.	c #74471A",
"0.	c #719345",
"a.	c #64797B",
"b.	c #54648D",
"c.	c #74667F",
"d.	c #7B7F3B",
"e.	c #5D3A14",
"f.	c #693411",
"g.	c #8A7B33",
"h.	c #728E5E",
"i.	c #536C89",
"j.	c #605990",
"k.	c #9E3052",
"l.	c #6B0000",
"m.	c #691203",
"n.	c #994C21",
"o.	c #A6604B",
"p.	c #757870",
"q.	c #957144",
"r.	c #6F8136",
"s.	c #4E3A14",
"t.	c #1B0000",
"u.	c #591B06",
"v.	c #925722",
"w.	c #977A45",
"x.	c #727875",
"y.	c #994D6E",
"z.	c #9E162A",
"A.	c #76471A",
"B.	c #65933E",
"C.	c #7D7F35",
"D.	c #7D6829",
"E.	c #684419",
"F.	c #390D02",
"G.	c #030000",
"H.	c #470300",
"I.	c #7A300F",
"J.	c #8B652B",
"K.	c #94663A",
"L.	c #9B2E26",
"M.	c #7D0104",
"N.	c #441203",
"O.	c #54491A",
"P.	c #5D3914",
"Q.	c #4F2A0C",
"R.	c #390601",
"S.	c #0D0000",
"T.	c #150000",
"U.	c #470601",
"V.	c #58280C",
"W.	c #69280C",
"X.	c #590601",
"Y.	c #080000",
"Z.	c #2F0000",
"`.	c #490000",
" +	c #5A0000",
".+	c #5A0501",
"++	c #492108",
"@+	c #2F0501",
"#+	c #2D0000",
"$+	c #5F0601",
"%+	c #84280C",
"&+	c #9C280C",
"*+	c #9C2A0C",
"=+	c #776528",
"-+	c #5E280C",
";+	c #140000",
">+	c #410000",
",+	c #7C280C",
"'+	c #986531",
")+	c #936E5E",
"!+	c #956465",
"~+	c #699743",
"{+	c #706327",
"]+	c #411404",
"^+	c #4F0401",
"/+	c #8C3813",
"(+	c #8B7759",
"_+	c #557A7E",
":+	c #557285",
"<+	c #639951",
"[+	c #61933E",
"}+	c #4E4A1B",
"|+	c #471F07",
"1+	c #795E25",
"2+	c #778C4D",
"3+	c #626B84",
"4+	c #615C8D",
"5+	c #916755",
"6+	c #7A5D24",
"7+	c #472008",
"8+	c #070000",
"9+	c #360A02",
"0+	c #6A3813",
"a+	c #885F2C",
"b+	c #9E3D52",
"c+	c #9F3457",
"d+	c #991D1C",
"e+	c #6C1705",
"f+	c #360300",
"g+	c #170100",
"h+	c #420A02",
"i+	c #601F07",
"j+	c #750401",
"k+	c #750000",
"l+	c #610000",
"m+	c #420000",
"n+	c #2A0000",
"o+	c #370000",
"p+	c #100000",
"q+	c #400A02",
"r+	c #523713",
"s+	c #5E4A1C",
"t+	c #521304",
"u+	c #400000",
"v+	c #620000",
"w+	c #723411",
"x+	c #767C33",
"y+	c #6C923E",
"z+	c #894D2D",
"A+	c #740815",
"B+	c #400102",
"C+	c #750E06",
"D+	c #8F3A24",
"E+	c #A4161E",
"F+	c #960204",
"G+	c #92481B",
"H+	c #99773C",
"I+	c #708666",
"J+	c #91536D",
"K+	c #8E2C4B",
"L+	c #560916",
"M+	c #560100",
"N+	c #92412B",
"O+	c #7B8557",
"P+	c #975972",
"Q+	c #BF1D33",
"R+	c #9B0102",
"S+	c #560000",
"T+	c #653A14",
"U+	c #808337",
"V+	c #6B8D61",
"W+	c #536D87",
"X+	c #5C5990",
"Y+	c #844572",
"Z+	c #67162B",
"`+	c #680A02",
" @	c #91594D",
".@	c #559366",
"+@	c #546C89",
"@@	c #A24973",
"#@	c #AD0B16",
"$@	c #680000",
"%@	c #5B3B14",
"&@	c #7A8337",
"*@	c #7A8959",
"=@	c #55668D",
"-@	c #8F4C7A",
";@	c #934E36",
">@	c #5C210F",
",@	c #230300",
"'@	c #5C1F07",
")@	c #8D6333",
"!@	c #6A9456",
"~@	c #66777B",
"{@	c #936169",
"]@	c #9D252C",
"^@	c #5D0000",
"/@	c #803A14",
"(@	c #A13E28",
"_@	c #983F66",
":@	c #9B4F2C",
"<@	c #5D933E",
"[@	c #4A5D25",
"}@	c #111705",
"|@	c #4B0401",
"1@	c #7C501F",
"2@	c #679742",
"3@	c #838248",
"4@	c #87763C",
"5@	c #813315",
"6@	c #550000",
"7@	c #6C0000",
"8@	c #664D1D",
"9@	c #4C933E",
"0@	c #325D25",
"a@	c #061705",
"b@	c #54280C",
"c@	c #626628",
"d@	c #784218",
"e@	c #550A02",
"f@	c #330000",
"g@	c #3A0000",
"h@	c #331404",
"i@	c #2A4A1B",
"j@	c #0C2008",
"k@	c #050300",
"l@	c #400300",
"m@	c #521B06",
"n@	c #603210",
"o@	c #520A02",
"p@	c #1F0501",
"q@	c #342108",
"r@	c #3A0501",
"s@	c #760306",
"t@	c #891325",
"u@	c #741705",
"v@	c #8B4E1F",
"w@	c #857635",
"x@	c #855E2E",
"y@	c #6F4B1D",
"z@	c #401203",
"A@	c #750711",
"B@	c #933053",
"C@	c #834B7D",
"D@	c #924B6E",
"E@	c #886D38",
"F@	c #75250A",
"G@	c #3C0100",
"H@	c #561103",
"I@	c #904A24",
"J@	c #9A6254",
"K@	c #758860",
"L@	c #5E9C4E",
"M@	c #629642",
"N@	c #54471A",
"O@	c #4B0300",
"P@	c #823144",
"Q@	c #5E618A",
"R@	c #555A92",
"S@	c #567F7A",
"T@	c #4DA648",
"U@	c #75722E",
"V@	c #4B0A02",
"W@	c #64481B",
"X@	c #69924A",
"Y@	c #588573",
"Z@	c #546E88",
"`@	c #5D7C7A",
" #	c #8F5B50",
".#	c #681203",
"+#	c #4B1705",
"@#	c #814E23",
"##	c #837B58",
"$#	c #61618A",
"%#	c #537B7F",
"&#	c #52A34A",
"*#	c #74732F",
"=#	c #4B1F07",
"-#	c #595722",
";#	c #5B9C47",
">#	c #5B955E",
",#	c #65737F",
"'#	c #9D516B",
")#	c #A21520",
"!#	c #3C1705",
"~#	c #6F4D1D",
"{#	c #867533",
"]#	c #A8494E",
"^#	c #8F6262",
"/#	c #867336",
"(#	c #733511",
"_#	c #3C0401",
":#	c #4B1905",
"<#	c #7A5726",
"[#	c #906143",
"}#	c #7B8949",
"|#	c #965F2E",
"1#	c #831F09",
"2#	c #240300",
"3#	c #733210",
"4#	c #883412",
"5#	c #747430",
"6#	c #657430",
"7#	c #513210",
"8#	c #6B250A",
"9#	c #715D25",
"0#	c #693813",
"a#	c #4B3411",
"b#	c #3D3411",
"c#	c #240A02",
"d#	c #330401",
"e#	c #3B1F07",
"f#	c #330A02",
"g#	c #1F0100",
"    . + @ @ + .                                                 . + @ @ + .     ",
"  # $ % & & % $ #                                             # $ % & & % $ #   ",
". $ * = - ; > , ' .                                         . $ * = ) ) = * $ . ",
"+ % ! ~ { ] ^ / ( +                                         + % = _ : < [ = % + ",
"@ & } | 1 2 3 4 5 @                                         @ & ) 6 7 8 9 0 a @ ",
"@ & b c d e f g h @                                         @ & ) i j k l m n @ ",
"+ % = o p q r = % +                                         + % = s t u v w x + ",
". $ * = ) ) = * $ . y z z A .                               . $ * B C D E F G . ",
"  # $ % & & % $ H I J K L M N O                   P Q R S #   # $ T U V W X Y   ",
"    . + @ @ + . I Z `  ...+.@.#..               $.%.&.*.=.-.$.  . + @ @ + .     ",
"              y J ` ;.>.,.'.).!.~.            # {.].^./.(._.-.#                 ",
"              z K :.<.[.}.|.1.2.3.            J =.4.5.6.7.8.` J                 ",
"              z L 9.0.a.b.c.d.e.3.            J f.g.h.i.j.k.l.J                 ",
"              A M m.n.o.p.q.r.s.t.            J u.v.w.x.y.z.` J                 ",
"              . N @.A.B.C.D.E.F.G.            # H.I.J.K.L.M.-.#                 ",
"                O #.N.O.P.Q.R.S.  y T.3.3.T.y   $.U.V.W.X.-.$.                  ",
"                  . ~.3.3.t.G.  Y.Z.`. +.+++@+Y.  # J J J #                     ",
"                              y #+$+%+&+*+=+-+#+y                               ",
"                              ;+>+,+'+)+!+~+{+]+;+                              ",
"                              @ ^+/+(+_+:+<+[+}+@                               ",
"                              @ |+1+2+3+4+5+6+7+@                               ",
"                              8+9+0+a+b+c+d+e+f+8+                              ",
"                                g+h+i+j+k+l+m+@   O 3.3.3.O                     ",
"                    O 3.3.3.O   y T.n+o+o+n+T.y p+q+r+s+t+u+p+                  ",
"                  p+u+* v+* u+p+    H z z H   O u+w+x+y+z+A+B+O                 ",
"                O u+C+D+E+F+k+u+O             3.2.G+H+I+J+K+L+3.                ",
"                3.M+N+O+P+Q+R+S+3.            J T+U+V+W+X+Y+Z+J                 ",
"                J `+ @.@+@@@#@$@J             J %@&@*@=@-@;@>@,@                ",
"                J '@)@!@~@{@]@^@J             + a /@(@_@:@<@[@}@                ",
"                + |@1@2@3@4@5@& +             . $ 6@7@).8@9@0@a@. + @ @ + .     ",
"      O 3.3.3.O . $ b@c@d@f.e@$ .               O 3.f@g@h@i@j@k@$ % & & % $ #   ",
"    p+l@m@n@o@u+p+O p@q@r@f@3.O                   . z z z . . $ * s@t@t@s@* $ . ",
"  O u+u@v@w@x@y@z@O . z z z .                               + % A@B@C@D@E@F@G@+ ",
"  3.H@I@J@K@L@M@N@3.                                        @ O@P@Q@R@S@T@U@V@@ ",
"  J W@X@Y@Z@`@ #.#J                                         @ +#@###$#%#&#*#=#@ ",
"  J -#;#>#,#'#)#^@J                                         + !#~#{#]#^#/#(#_#+ ",
"  + :#<#[#}#|#1#& +                                         . 2#m@3#4#5#6#7#$ . ",
"  . $ 6@8#9#0#e@$ .                                           # $ % V@a#b#c##   ",
"    O 3.d#e#f#g#O                                               . + @ @ + .     ",
"      . z z z .                                                                 "};
